<?xml version="1.0" encoding="iso-8859-1"?>
<!-- Generator: Adobe Illustrator 19.0.0, SVG Export Plug-In . SVG Version: 6.00 Build 0)  -->
<svg version="1.1" id="Capa_1" xmlns="http://www.w3.org/2000/svg" xmlns:xlink="http://www.w3.org/1999/xlink" x="0px" y="0px"
	 viewBox="0 0 464.024 464.024" style="enable-background:new 0 0 464.024 464.024;" xml:space="preserve">
<path style="fill:#F8C09C;" d="M65.248,216.016l25.48,117.208c9.478,43.6,6.186,89.007-9.48,130.784H382.8
	c-15.666-41.777-18.958-87.184-9.48-130.784l25.48-117.208l65.224-56v-37.72c0-36.605-29.675-66.28-66.28-66.28
	c-0.003,0-0.005,0-0.008,0H288v-56H176v56H66.312C29.707,55.998,0.018,85.659,0,122.264c0,0.011,0,0.021,0,0.032v37.72
	L65.248,216.016z"/>
<path style="fill:#A9BFD1;" d="M16.024,112.016h432v240h-432L16.024,112.016z"/>
<path style="fill:#7D8F9F;" d="M32.024,128.016h400v208h-400L32.024,128.016z"/>
<path style="fill:#EF937D;" d="M32,128.016v59.472l33.224,28.528l25.48,117.208c0.2,0.92,0.312,1.856,0.504,2.792H372.8
	c0.192-0.936,0.304-1.872,0.504-2.792L398.8,216.016l33.2-28.528v-59.472H32z"/>
<g>
	<path style="fill:#F6F6E7;" d="M204.8,221.96l-9.472-12.896L224,187.968v-59.952h16v64c-0.015,2.529-1.225,4.903-3.264,6.4
		L204.8,221.96z"/>
	<path style="fill:#F6F6E7;" d="M227.283,198.463l9.466-12.89l32.001,23.501l-9.466,12.89L227.283,198.463z"/>
</g>
<g>
	<path style="fill:#DD527C;" d="M281.048,288.016h13.92c5.846,0.003,11.507,2.052,16,5.792l6.096,5.08
		c9.042,7.529,22.475,6.302,30.004-2.74c3.186-3.827,4.932-8.649,4.932-13.628c0.002-37.464-14.882-73.393-41.376-99.88
		c-14.487-14.487-34.136-22.625-54.624-22.624v102.976c0,13.82,11.204,25.024,25.024,25.024
		C281.032,288.016,281.04,288.016,281.048,288.016L281.048,288.016z"/>
	<path style="fill:#DD527C;" d="M183,288.152h-13.92c-5.847,0.006-11.507,2.058-16,5.8l-6.096,5.08
		c-9.02,7.555-22.456,6.368-30.012-2.651c-3.22-3.844-4.981-8.702-4.973-13.717c-0.001-37.462,14.879-73.39,41.368-99.88
		c14.489-14.491,34.141-22.632,54.632-22.632v102.984C208,276.946,196.81,288.143,183,288.152L183,288.152z"/>
</g>
<g>
	<path style="fill:#B81A48;" d="M176,256.016h-16v-24c-0.002-2.124,0.842-4.162,2.344-5.664l16-16l11.312,11.32L176,235.328
		L176,256.016z"/>
	<path style="fill:#B81A48;" d="M144.024,224.016h24v16h-24V224.016z"/>
	<path style="fill:#B81A48;" d="M304,256.016h-16v-20.688l-13.6-13.656l11.28-11.32l16,16c1.502,1.502,2.346,3.54,2.344,5.664
		L304,256.016z"/>
	<path style="fill:#B81A48;" d="M296.024,224.016h24v16h-24V224.016z"/>
</g>
<g>
</g>
<g>
</g>
<g>
</g>
<g>
</g>
<g>
</g>
<g>
</g>
<g>
</g>
<g>
</g>
<g>
</g>
<g>
</g>
<g>
</g>
<g>
</g>
<g>
</g>
<g>
</g>
<g>
</g>
</svg>
