<?xml version="1.0" encoding="iso-8859-1"?>
<!-- Generator: Adobe Illustrator 19.0.0, SVG Export Plug-In . SVG Version: 6.00 Build 0)  -->
<svg version="1.1" id="Capa_1" xmlns="http://www.w3.org/2000/svg" xmlns:xlink="http://www.w3.org/1999/xlink" x="0px" y="0px"
	 viewBox="0 0 464 464" style="enable-background:new 0 0 464 464;" xml:space="preserve">
<path style="fill:#5F7ABC;" d="M384.024,391.992l-304,0.008l56-80l192-0.008L384.024,391.992z"/>
<g>
	<path style="fill:#F8C09C;" d="M216.024,328h-48l8-56l40,8V328z"/>
	<path style="fill:#F8C09C;" d="M248.024,327.992l48,0.008l-8-56.008l-40,8V327.992z"/>
</g>
<ellipse style="fill:#2276BB;" cx="232" cy="192" rx="136" ry="96"/>
<g>
	<path style="fill:#F8C09C;" d="M192,104h80l0,0v72c0,22.091-17.909,40-40,40s-40-17.909-40-40V104L192,104z"/>
	<path style="fill:#F8C09C;" d="M424,216.496v88L408,344h56l-8-39.504l8-144l-80-8v0.152c-17.62-13.274-42.665-9.751-55.939,7.87
		c-13.274,17.62-9.751,42.665,7.87,55.938c6.936,5.225,15.385,8.047,24.069,8.04c2.753-0.001,5.498-0.285,8.192-0.848L424,216.496z"
		/>
	<path style="fill:#F8C09C;" d="M95.832,223.144c21.619,4.546,42.829-9.295,47.375-30.913c4.546-21.619-9.295-42.829-30.913-47.375
		c-2.727-0.573-5.507-0.86-8.293-0.856c-8.676,0.018-17.107,2.882-24,8.152V152l-80,8l8,144l-8,40h56l-16-40v-88L95.832,223.144z"/>
</g>
<path style="fill:#67342C;" d="M224,104c0,13.255,10.745,24,24,24h9.6c9.229-0.002,18.08-3.668,24.608-10.192
	c3.817-3.822,6.695-8.477,8.408-13.6L304,72H192c-13.255,0-24,10.745-24,24v8c0,13.255,10.745,24,24,24v-24H224z"/>
<g>
</g>
<g>
</g>
<g>
</g>
<g>
</g>
<g>
</g>
<g>
</g>
<g>
</g>
<g>
</g>
<g>
</g>
<g>
</g>
<g>
</g>
<g>
</g>
<g>
</g>
<g>
</g>
<g>
</g>
</svg>
