<?xml version="1.0" encoding="iso-8859-1"?>
<!-- Generator: Adobe Illustrator 19.0.0, SVG Export Plug-In . SVG Version: 6.00 Build 0)  -->
<svg version="1.1" id="Capa_1" xmlns="http://www.w3.org/2000/svg" xmlns:xlink="http://www.w3.org/1999/xlink" x="0px" y="0px"
	 viewBox="0 0 464.024 464.024" style="enable-background:new 0 0 464.024 464.024;" xml:space="preserve">
<path style="fill:#7FCCCB;" d="M0.024,128.012h464v336h-464L0.024,128.012z"/>
<path style="fill:#394D5D;" d="M232,200.012c-61.816-0.022-111.946,50.073-111.967,111.889
	c-0.012,34.177,15.592,66.487,42.367,87.727c14.757,1.816,29.525-3.296,40-13.848l8-8l11.312,11.312l-8,8
	c-7.883,7.901-17.687,13.614-28.448,16.576c56.143,25.963,122.704,1.497,148.667-54.646s1.497-122.704-54.646-148.667
	C264.466,203.502,248.327,199.972,232,200.012z"/>
<g>
	<path style="fill:#9A615B;" d="M106.366,61.667l11.314-11.314l15.998,15.998l-11.314,11.314L106.366,61.667z"/>
	<path style="fill:#9A615B;" d="M192.024,0.012h16v24h-16V0.012z"/>
	<path style="fill:#9A615B;" d="M346.35,58.353l15.998-15.998l11.314,11.314l-15.998,15.998L346.35,58.353z"/>
	<path style="fill:#9A615B;" d="M264.433,29.445l8.003-23.997l15.178,5.062l-8.003,23.997L264.433,29.445z"/>
</g>
<g>
	<path style="fill:#A9BFD1;" d="M416.023,38.656l22.628-22.628l22.628,22.628L438.65,61.284L416.023,38.656z"/>
	<path style="fill:#A9BFD1;" d="M2.773,54.63L25.4,32.002L48.028,54.63L25.4,77.257L2.773,54.63z"/>
</g>
<g>
	<path style="fill:#9A615B;" d="M58.365,21.659l11.314-11.314l15.998,15.998L74.362,37.657L58.365,21.659z"/>
	<path style="fill:#9A615B;" d="M338.368,18.349l15.998-15.998l11.314,11.314l-15.998,15.998L338.368,18.349z"/>
</g>
<g>
	<path style="fill:#7D8F9F;" d="M208,391.436c-17.673,0-32-14.327-32-32s14.327-32,32-32s32,14.327,32,32
		S225.673,391.436,208,391.436z M208,343.436c-8.837,0-16,7.163-16,16s7.163,16,16,16s16-7.163,16-16S216.837,343.436,208,343.436z"
		/>
	<path style="fill:#7D8F9F;" d="M208,392.012v-16c30.913-0.035,55.965-25.087,56-56v-32h16v32
		C279.952,359.756,247.744,391.964,208,392.012z"/>
	<path style="fill:#7D8F9F;" d="M221.68,389.092L210.4,377.78l-8,8c-10.475,10.552-25.243,15.664-40,13.848
		c7.025,5.58,14.696,10.294,22.848,14.04c10.761-2.962,20.565-8.675,28.448-16.576L221.68,389.092z"/>
</g>
<g>
	<path style="fill:#1F8B94;" d="M40,272.012c1.052,0,2.094-0.209,3.064-0.616c2.986-1.238,4.934-4.151,4.936-7.384v-20.688
		l26.4,26.344l11.28-11.32l-40-40c-3.111-3.137-8.177-3.158-11.314-0.047c-1.522,1.51-2.375,3.567-2.366,5.711v20.68l-32-32v22.632
		l34.4,34.344C35.886,271.155,37.898,271.997,40,272.012L40,272.012z"/>
	<path style="fill:#1F8B94;" d="M440,160.012c-0.027-4.418-3.631-7.978-8.049-7.951c-2.077,0.013-4.068,0.833-5.551,2.287l-40,40
		l11.312,11.32L424,179.324v12.688c0.001,4.418,3.583,7.999,8.002,7.998c2.121,0,4.154-0.843,5.654-2.342L464,171.324v-22.632
		l-24,24V160.012z"/>
	<path style="fill:#1F8B94;" d="M56.864,427.588c1.151,2.302,3.339,3.91,5.88,4.32c2.538,0.421,5.123-0.414,6.936-2.24L88,411.324
		l26.4,26.344l11.28-11.32l-32-32c-3.124-3.123-8.188-3.123-11.312,0L66.216,410.5L47.2,372.428
		c-1.98-3.95-6.787-5.546-10.737-3.566c-0.763,0.382-1.459,0.884-2.063,1.486L0,404.692v22.632l37.808-37.808L56.864,427.588z"/>
	<path style="fill:#1F8B94;" d="M424.512,349.188l-18.832-18.84c-3.124-3.123-8.188-3.123-11.312,0l-24,24l11.312,11.32L400,347.324
		l18.4,18.344c2.926,2.924,7.598,3.136,10.776,0.488L464,337.092v-20.8L424.512,349.188z"/>
</g>
<circle style="fill:#D1E3EE;" cx="232" cy="184.012" r="120"/>
<path style="fill:#F6F6E7;" d="M224.024,96.012h16v24h-16L224.024,96.012z"/>
<path style="fill:#DD1C4B;" d="M232,208.012c-13.255,0-24-10.745-24-24s10.745-24,24-24c13.255,0,24,10.745,24,24
	S245.255,208.012,232,208.012z M232,176.012c-4.418,0-8,3.582-8,8s3.582,8,8,8s8-3.582,8-8S236.418,176.012,232,176.012z"/>
<g>
	<path style="fill:#F6F6E7;" d="M144.024,176.012h24v16h-24V176.012z"/>
	<path style="fill:#F6F6E7;" d="M273.399,131.31l16.971-16.971l11.314,11.314l-16.971,16.971L273.399,131.31z"/>
	<path style="fill:#F6F6E7;" d="M162.367,125.661l11.314-11.314l16.971,16.971l-11.314,11.314L162.367,125.661z"/>
	<path style="fill:#F6F6E7;" d="M296.024,176.012h24v16h-24V176.012z"/>
</g>
<g>
	<path style="fill:#DD1C4B;" d="M234.366,197.693l11.314-11.314l32.001,32.001l-11.314,11.314L234.366,197.693z"/>
	<path style="fill:#DD1C4B;" d="M272,232.012h-32v-16h24v-24h16v32C280,228.43,276.418,232.012,272,232.012z"/>
</g>
<path style="fill:#A9BFD1;" d="M232,64.012c-66.274,0-120,53.726-120,120s53.726,120,120,120s120-53.726,120-120
	S298.274,64.012,232,64.012z M232,272.012c-48.601,0-88-39.399-88-88s39.399-88,88-88s88,39.399,88,88l0,0
	C320,232.613,280.601,272.012,232,272.012z"/>
<g>
</g>
<g>
</g>
<g>
</g>
<g>
</g>
<g>
</g>
<g>
</g>
<g>
</g>
<g>
</g>
<g>
</g>
<g>
</g>
<g>
</g>
<g>
</g>
<g>
</g>
<g>
</g>
<g>
</g>
</svg>
