<?xml version="1.0" encoding="iso-8859-1"?>
<!-- Generator: Adobe Illustrator 19.0.0, SVG Export Plug-In . SVG Version: 6.00 Build 0)  -->
<svg version="1.1" id="Capa_1" xmlns="http://www.w3.org/2000/svg" xmlns:xlink="http://www.w3.org/1999/xlink" x="0px" y="0px"
	 viewBox="0 0 472.024 472.024" style="enable-background:new 0 0 472.024 472.024;" xml:space="preserve">
<path style="fill:#88D0EF;" d="M312,168.012H72v56c0,26.382,21.386,47.768,47.768,47.768l0,0l1.752,0.056
	c-0.981,2.616-1.495,5.383-1.52,8.176v96h240V216.06C360,189.543,338.517,168.038,312,168.012z"/>
<path style="fill:#D1E3EE;" d="M336,256.012c-13.255,0-24,10.745-24,24c0-13.255-10.745-24-24-24s-24,10.745-24,24
	c0-13.255-10.745-24-24-24c-13.255,0-24,10.745-24,24c0-13.255-10.745-24-24-24s-24,10.745-24,24c0-13.255-10.745-24-24-24
	s-24,10.745-24,24v96h240v-96C360,266.757,349.255,256.012,336,256.012z"/>
<g>
	<path style="fill:#88D0EF;" d="M424,200.012c-13.255,0-24-10.745-24-24s10.745-24,24-24s24,10.745,24,24
		S437.255,200.012,424,200.012z M424,168.012c-4.418,0-8,3.582-8,8s3.582,8,8,8s8-3.582,8-8S428.418,168.012,424,168.012z"/>
	<path style="fill:#88D0EF;" d="M64,368.012c-17.673,0-32-14.327-32-32s14.327-32,32-32s32,14.327,32,32S81.673,368.012,64,368.012z
		 M64,320.012c-8.837,0-16,7.163-16,16s7.163,16,16,16s16-7.163,16-16S72.837,320.012,64,320.012z"/>
	<path style="fill:#88D0EF;" d="M24,256.012c-13.255,0-24-10.745-24-24c0-13.255,10.745-24,24-24s24,10.745,24,24
		C48,245.267,37.255,256.012,24,256.012z M24,224.012c-4.418,0-8,3.582-8,8s3.582,8,8,8s8-3.582,8-8S28.418,224.012,24,224.012z"/>
</g>
<g>
	<path style="fill:#FFF89B;" d="M432.024,240.012l11.312,28.68l28.688,11.32l-28.688,11.312l-11.312,28.688l-11.312-28.688
		l-28.688-11.312l28.688-11.32L432.024,240.012z"/>
	<path style="fill:#FFF89B;" d="M112.024,56.012l11.312,28.68l28.688,11.32l-28.688,11.312l-11.312,28.688l-11.312-28.688
		L72.024,96.012l28.688-11.32L112.024,56.012z"/>
</g>
<path style="fill:#F6F6E7;" d="M336,224.012h-16c0-8.837-7.163-16-16-16v-16C321.673,192.012,336,206.339,336,224.012z"/>
<path style="fill:#2276BB;" d="M104.024,368.012h368v48h-368L104.024,368.012z"/>
<g>
</g>
<g>
</g>
<g>
</g>
<g>
</g>
<g>
</g>
<g>
</g>
<g>
</g>
<g>
</g>
<g>
</g>
<g>
</g>
<g>
</g>
<g>
</g>
<g>
</g>
<g>
</g>
<g>
</g>
</svg>
