<?xml version="1.0" encoding="iso-8859-1"?>
<!-- Generator: Adobe Illustrator 19.0.0, SVG Export Plug-In . SVG Version: 6.00 Build 0)  -->
<svg version="1.1" id="Capa_1" xmlns="http://www.w3.org/2000/svg" xmlns:xlink="http://www.w3.org/1999/xlink" x="0px" y="0px"
	 viewBox="0 0 480 480" style="enable-background:new 0 0 480 480;" xml:space="preserve">
<circle style="fill:#DD1C4B;" cx="228" cy="378.825" r="12"/>
<path style="fill:#F8C09C;" d="M0,318.809h480v16H0L0,318.809z"/>
<g>
	<path style="fill:#9A615B;" d="M39.976,350.809h-16v-23.432c-0.088-38.372,15.18-75.185,42.4-102.232l11.312,11.32
		c-24.21,24.049-37.791,56.787-37.712,90.912L39.976,350.809z"/>
	<path style="fill:#9A615B;" d="M135.976,350.809h-16v-23.432c-0.088-38.372,15.18-75.185,42.4-102.232l11.312,11.32
		c-24.21,24.049-37.791,56.787-37.712,90.912L135.976,350.809z"/>
	<path style="fill:#9A615B;" d="M439.976,350.809h-16v-22.064c-0.047-23.875,9.459-46.777,26.4-63.6l11.312,11.32
		c-13.933,13.825-21.752,32.652-21.712,52.28V350.809z"/>
	<path style="fill:#9A615B;" d="M375.976,367.305h-16v-46.056c-0.064-23.867,9.422-46.768,26.344-63.6l11.312,11.312
		c-13.913,13.837-21.711,32.666-21.656,52.288V367.305z"/>
</g>
<path style="fill:#A9BFD1;" d="M162.344,361.15l80-80l11.314,11.314l-80,80L162.344,361.15z"/>
<path style="fill:#D1E3EE;" d="M456,110.809l-32-32l-32,32l-16-16l-128,128l16,16l-32,32l32,32l32-32l16,16l128-128l-16-16
	L456,110.809z"/>
<path style="fill:#7FCCCB;" d="M248,222.809l64,64l88.4-88.408l-128.32,0.32L248,222.809z"/>
<g>
	<path style="fill:#A9BFD1;" d="M402.344,68.489l11.314-11.314l64.76,64.76l-11.314,11.314L402.344,68.489z"/>
	<path style="fill:#A9BFD1;" d="M354.34,84.463l11.314-11.314l96.003,96.003l-11.314,11.314L354.34,84.463z"/>
</g>
<g>
	<path style="fill:#7D8F9F;" d="M338.344,132.463l11.314-11.314l24.002,24.002l-11.314,11.314L338.344,132.463z"/>
	<path style="fill:#7D8F9F;" d="M306.344,164.462l11.314-11.314l24.002,24.002l-11.314,11.314L306.344,164.462z"/>
</g>
<path style="fill:#9A615B;" d="M79.976,358.809h-16v-6.064c-0.047-23.875,9.459-46.777,26.4-63.6l11.312,11.32
	c-13.933,13.825-21.752,32.652-21.712,52.28L79.976,358.809z"/>
<g>
	<circle style="fill:#DD1C4B;" cx="84" cy="402.825" r="12"/>
	<circle style="fill:#DD1C4B;" cx="284" cy="402.825" r="12"/>
	<circle style="fill:#DD1C4B;" cx="403.976" cy="410.825" r="12"/>
</g>
<g>
</g>
<g>
</g>
<g>
</g>
<g>
</g>
<g>
</g>
<g>
</g>
<g>
</g>
<g>
</g>
<g>
</g>
<g>
</g>
<g>
</g>
<g>
</g>
<g>
</g>
<g>
</g>
<g>
</g>
</svg>
