<?xml version="1.0" encoding="iso-8859-1"?>
<!-- Generator: Adobe Illustrator 19.0.0, SVG Export Plug-In . SVG Version: 6.00 Build 0)  -->
<svg version="1.1" id="Capa_1" xmlns="http://www.w3.org/2000/svg" xmlns:xlink="http://www.w3.org/1999/xlink" x="0px" y="0px"
	 viewBox="0 0 472 472" style="enable-background:new 0 0 472 472;" xml:space="preserve">
<path style="fill:#A9BFD1;" d="M228,8V0h-24c-8.837,0-16,7.163-16,16s7.163,16,16,16h24v-8c17.673,0,32,14.327,32,32v112
	c0,61.856-50.144,112-112,112S36,229.856,36,168V56c0-17.673,14.327-32,32-32v8h24c8.837,0,16-7.163,16-16S100.837,0,92,0H68v8
	C41.502,8.026,20.027,29.501,20,56v112c0,70.692,57.308,128,128,128s128-57.308,128-128V56C275.974,29.501,254.499,8.026,228,8z"/>
<g>
	<path style="fill:#31B1AE;" d="M68,32h24c4.243-0.001,8.312-1.687,11.312-4.688c6.246-6.248,6.246-16.376,0-22.624
		C100.312,1.687,96.243,0.001,92,0H68V32z"/>
	<path style="fill:#31B1AE;" d="M228,32h-24c-4.243-0.001-8.312-1.687-11.312-4.688c-6.246-6.248-6.246-16.376,0-22.624
		c3-3.001,7.069-4.687,11.312-4.688h24V32z"/>
</g>
<g>
	<path style="fill:#7D8F9F;" d="M452,272h-16c-0.075-66.243-53.757-119.925-120-120v-16C391.076,136.084,451.916,196.924,452,272z"
		/>
	<path style="fill:#7D8F9F;" d="M273.52,401.232c-40.997-13.57-73.158-45.736-86.72-86.736l15.2-4.992
		c11.967,36.175,40.345,64.553,76.52,76.52L273.52,401.232z"/>
</g>
<path style="fill:#A9BFD1;" d="M232.952,472c-24.223,0.077-47.459-9.596-64.472-26.84l-1.984-2
	C149.478,426.152,139.942,403.061,140,379v-91h16v91c-0.051,19.827,7.8,38.857,21.816,52.88l1.984,2
	c29.214,29.377,76.711,29.509,106.088,0.296c0.836-0.831,1.652-1.682,2.448-2.552C300.999,417.807,308.016,399.742,308,381v-69h16
	v69c0.011,49.524-39.583,89.964-89.096,91C234.248,472,233.6,472,232.952,472z"/>
<g>
	<path style="fill:#7D8F9F;" d="M272.688,366.568c-23.25-10.659-41.761-29.506-52-52.944l14.656-6.4
		c8.667,19.831,24.329,35.777,44,44.8L272.688,366.568z"/>
	<path style="fill:#7D8F9F;" d="M420,272h-16c-0.057-48.577-39.423-87.943-88-88v-16C373.41,168.066,419.934,214.59,420,272z"/>
</g>
<circle style="fill:#D1E3EE;" cx="316" cy="272" r="48"/>
<circle style="fill:#7D8F9F;" cx="316" cy="272" r="16"/>
<g>
</g>
<g>
</g>
<g>
</g>
<g>
</g>
<g>
</g>
<g>
</g>
<g>
</g>
<g>
</g>
<g>
</g>
<g>
</g>
<g>
</g>
<g>
</g>
<g>
</g>
<g>
</g>
<g>
</g>
</svg>
