<?xml version="1.0" encoding="iso-8859-1"?>
<!-- Generator: Adobe Illustrator 19.0.0, SVG Export Plug-In . SVG Version: 6.00 Build 0)  -->
<svg version="1.1" id="Capa_1" xmlns="http://www.w3.org/2000/svg" xmlns:xlink="http://www.w3.org/1999/xlink" x="0px" y="0px"
	 viewBox="0 0 464 464" style="enable-background:new 0 0 464 464;" xml:space="preserve">
<path style="fill:#F8C09C;" d="M417.16,417.136c-62.484,62.482-163.788,62.482-226.272,0C160.873,387.135,144.007,346.438,144,304
	V72h320v232C464.006,346.431,447.157,387.127,417.16,417.136z"/>
<g>
	<path style="fill:#F7CEB7;" d="M160,464H47.616C21.332,464.013,0.013,442.716,0,416.432c0-0.008,0-0.016,0-0.024v-64.8
		c0-26.28,21.304-47.584,47.584-47.584c0.003,0,0.005,0,0.008,0H160V464z"/>
	<path style="fill:#F7CEB7;" d="M160,304h124c11.046,0,20,8.954,20,20s-8.954,20-20,20H160l0,0V304L160,304z"/>
	<path style="fill:#F7CEB7;" d="M160,344h124c11.046,0,20,8.954,20,20s-8.954,20-20,20H160l0,0V344L160,344z"/>
	<path style="fill:#F7CEB7;" d="M160.024,384h64v40h-64V384z"/>
	<path style="fill:#F7CEB7;" d="M160.024,424h64v40h-64V424z"/>
</g>
<g>
	<path style="fill:#EF937D;" d="M160.024,424h64v15.496h-64V424z"/>
	<path style="fill:#EF937D;" d="M160.024,384h64v15.496h-64V384z"/>
</g>
<path style="fill:#D1E3EE;" d="M176.024,344l104-104l24,24l-80,80H176.024z"/>
<path style="fill:#67342C;" d="M400,72v96c17.673-17.672,46.327-17.672,64,0V0H72v40c0,39.765,32.236,72,72,72V72H400z"/>
<g>
	<path style="fill:#A9BFD1;" d="M309.68,214.152L298.4,202.84l12-12c7.903-7.93,7.903-20.758,0-28.688
		c-14.153-14.176-14.153-37.136,0-51.312l12-12l11.312,11.312l-12,12c-7.903,7.93-7.903,20.758,0,28.688
		c14.153,14.176,14.153,37.136,0,51.312L309.68,214.152z"/>
	<path style="fill:#A9BFD1;" d="M349.68,214.152L338.4,202.84l12-12c7.903-7.93,7.903-20.758,0-28.688
		c-14.153-14.176-14.153-37.136,0-51.312l12-12l11.312,11.312l-12,12c-7.903,7.93-7.903,20.758,0,28.688
		c14.153,14.176,14.153,37.136,0,51.312L349.68,214.152z"/>
</g>
<path style="fill:#DD1C4B;" d="M256.025,264.009l24.002-24.002l24.002,24.002l-24.002,24.002L256.025,264.009z"/>
<g>
	<path style="fill:#9A615B;" d="M392.024,344h16v16h-16V344z"/>
	<path style="fill:#9A615B;" d="M424.024,328h16v16h-16V328z"/>
	<path style="fill:#9A615B;" d="M368.024,376h16v16h-16V376z"/>
	<path style="fill:#9A615B;" d="M384.024,392h16v16h-16V392z"/>
	<path style="fill:#9A615B;" d="M287.976,424h16v16h-16V424z"/>
	<path style="fill:#9A615B;" d="M255.968,415.864h16v16h-16V415.864z"/>
	<path style="fill:#9A615B;" d="M352.024,408h16v16h-16V408z"/>
	<path style="fill:#9A615B;" d="M320.024,424h16v16h-16V424z"/>
	<path style="fill:#9A615B;" d="M328.024,392h16v16h-16V392z"/>
	<path style="fill:#9A615B;" d="M408.024,368h16v16h-16V368z"/>
</g>
<path style="fill:#F7CEB7;" d="M156,232h-44c-44.183,0-80,35.817-80,80h80v-40h44c11.046,0,20-8.954,20-20S167.046,232,156,232z"/>
<g>
</g>
<g>
</g>
<g>
</g>
<g>
</g>
<g>
</g>
<g>
</g>
<g>
</g>
<g>
</g>
<g>
</g>
<g>
</g>
<g>
</g>
<g>
</g>
<g>
</g>
<g>
</g>
<g>
</g>
</svg>
