<?xml version="1.0" encoding="iso-8859-1"?>
<!-- Generator: Adobe Illustrator 19.0.0, SVG Export Plug-In . SVG Version: 6.00 Build 0)  -->
<svg version="1.1" id="Capa_1" xmlns="http://www.w3.org/2000/svg" xmlns:xlink="http://www.w3.org/1999/xlink" x="0px" y="0px"
	 viewBox="0 0 464 464" style="enable-background:new 0 0 464 464;" xml:space="preserve">
<path style="fill:#88D0EF;" d="M0,0h464v464H0L0,0z"/>
<path style="fill:#FFD884;" d="M112,272l32,32L0,448v-64L112,272z"/>
<circle style="fill:#1D5C88;" cx="231.976" cy="184" r="160"/>
<g>
	<path style="fill:#F6F6E7;" d="M319.976,288c-0.012-26.51-21.511-47.991-48.021-47.979c-16.081,0.007-31.09,8.066-39.979,21.467
		c-14.61-22.12-44.386-28.208-66.507-13.597c-22.12,14.61-28.208,44.386-13.597,66.507c7.341,11.113,18.969,18.677,32.104,20.883
		V464h96V335.28C303.053,331.379,319.952,311.404,319.976,288z"/>
	<path style="fill:#F6F6E7;" d="M319.976,160c-0.016,26.51-21.519,47.987-48.029,47.971c-16.078-0.01-31.083-8.069-39.971-21.467
		c-14.61,22.12-44.386,28.208-66.507,13.597c-22.12-14.61-28.208-44.386-13.597-66.507c7.341-11.113,18.969-18.677,32.104-20.883V0
		h96v112.712C303.056,116.613,319.956,136.593,319.976,160z"/>
</g>
<path style="fill:#CFAD9A;" d="M314.2,182.896l-26.224-26.216V136h-16v16h-16v16h20.688l27.52,27.512
	C308.207,191.899,311.593,187.634,314.2,182.896L314.2,182.896z"/>
<path style="fill:#D1E3EE;" d="M231.976,24c-88.366,0-160,71.634-160,160s71.634,160,160,160s160-71.634,160-160l0,0
	C391.976,95.634,320.342,24,231.976,24z M231.976,312c-70.692,0-128-57.308-128-128s57.308-128,128-128s128,57.308,128,128
	S302.668,312,231.976,312z"/>
<g>
</g>
<g>
</g>
<g>
</g>
<g>
</g>
<g>
</g>
<g>
</g>
<g>
</g>
<g>
</g>
<g>
</g>
<g>
</g>
<g>
</g>
<g>
</g>
<g>
</g>
<g>
</g>
<g>
</g>
</svg>
