<?xml version="1.0" encoding="iso-8859-1"?>
<!-- Generator: Adobe Illustrator 19.0.0, SVG Export Plug-In . SVG Version: 6.00 Build 0)  -->
<svg version="1.1" id="Capa_1" xmlns="http://www.w3.org/2000/svg" xmlns:xlink="http://www.w3.org/1999/xlink" x="0px" y="0px"
	 viewBox="0 0 464 464" style="enable-background:new 0 0 464 464;" xml:space="preserve">
<path style="fill:#D1E3EE;" d="M31.056,0h401.936C450.118,0.013,463.996,13.898,464,31.024V272l0,0H0l0,0V31.024
	C0.004,13.886,13.901-0.004,31.04,0C31.045,0,31.051,0,31.056,0z"/>
<g>
	<path style="fill:#F8C09C;" d="M160,336v16H16.16C7.248,351.987,0.013,359.2,0,368.112c0,0.008,0,0.016,0,0.024V464h208V352.136
		c0-8.912-7.224-16.136-16.136-16.136L160,336z"/>
	<path style="fill:#F8C09C;" d="M449.6,304H304v-16h-48v128l16,48h192V318.464C464,310.501,457.563,304.035,449.6,304L449.6,304z"/>
</g>
<g>
	<path style="fill:#EF937D;" d="M304.024,304h16v64h-16V304z"/>
	<path style="fill:#EF937D;" d="M344.024,304h16v64h-16V304z"/>
	<path style="fill:#EF937D;" d="M384.024,304h16v64h-16V304z"/>
	<path style="fill:#EF937D;" d="M424.024,304h16v64h-16V304z"/>
	<path style="fill:#EF937D;" d="M160.056,415.96h-16v-64h16V415.96z"/>
	<path style="fill:#EF937D;" d="M120.056,415.96h-16v-64h16V415.96z"/>
	<path style="fill:#EF937D;" d="M80.056,415.96h-16v-64h16V415.96z"/>
	<path style="fill:#EF937D;" d="M40.056,415.952h-16v-64h16L40.056,415.952z"/>
</g>
<circle style="fill:#1D5C88;" cx="232" cy="136" r="104"/>
<path style="fill:#88D0EF;" d="M161.192,212c39.842-37.334,101.822-37.334,141.664,0c42.056-39.119,44.437-104.926,5.318-146.982
	S203.249,20.581,161.192,59.7s-44.437,104.926-5.318,146.982C157.582,208.518,159.356,210.292,161.192,212L161.192,212z"/>
<path style="fill:#D1E3EE;" d="M224,80v104.384c2.648-0.2,5.296-0.384,8-0.384c2.704,0,5.352,0.184,8,0.384V80H224z"/>
<g>
</g>
<g>
</g>
<g>
</g>
<g>
</g>
<g>
</g>
<g>
</g>
<g>
</g>
<g>
</g>
<g>
</g>
<g>
</g>
<g>
</g>
<g>
</g>
<g>
</g>
<g>
</g>
<g>
</g>
</svg>
