<?xml version="1.0" encoding="iso-8859-1"?>
<!-- Generator: Adobe Illustrator 19.0.0, SVG Export Plug-In . SVG Version: 6.00 Build 0)  -->
<svg version="1.1" id="Capa_1" xmlns="http://www.w3.org/2000/svg" xmlns:xlink="http://www.w3.org/1999/xlink" x="0px" y="0px"
	 viewBox="0 0 464 464" style="enable-background:new 0 0 464 464;" xml:space="preserve">
<path style="fill:#67342C;" d="M336.072,104H328l0.52-47.504h-96L232,104h-8.072c-26.465-0.004-47.924,21.447-47.928,47.912
	c0,0.003,0,0.005,0,0.008v240.152c0,26.47,21.458,47.928,47.928,47.928h0h112.144c26.47,0,47.928-21.458,47.928-47.928c0,0,0,0,0,0
	V151.92c0-26.465-21.454-47.92-47.92-47.92C336.077,104,336.075,104,336.072,104z"/>
<path style="fill:#F6F6E7;" d="M176,184h208v144H176L176,184z"/>
<circle style="fill:#FFD884;" cx="400" cy="400" r="64"/>
<path style="fill:#FFBF41;" d="M362.349,426.337l64.002-64.002l11.314,11.314l-64.002,64.002L362.349,426.337z"/>
<g>
	<path style="fill:#DD1C4B;" d="M204,360h-75.48v104h75.456c28.719,0,52-23.281,52-52s-23.281-52-52-52H204z"/>
	<path style="fill:#DD1C4B;" d="M204,360H52c-28.719,0-52,23.281-52,52s23.281,52,52,52h152c28.719,0,52-23.281,52-52
		S232.719,360,204,360z"/>
</g>
<path style="fill:#FFFFFF;" d="M232,416h-16c0-8.837-7.163-16-16-16v-16C217.673,384,232,398.327,232,416z"/>
<path style="fill:#A9BFD1;" d="M200,0h160v64H200L200,0z"/>
<g>
	<path style="fill:#7D8F9F;" d="M224,0h16v64h-16L224,0z"/>
	<path style="fill:#7D8F9F;" d="M256,0h16v64h-16V0z"/>
	<path style="fill:#7D8F9F;" d="M288,0h16v64h-16V0z"/>
	<path style="fill:#7D8F9F;" d="M320,0h16v64h-16V0z"/>
</g>
<circle style="fill:#D1E3EE;" cx="280" cy="256" r="32"/>
<path style="fill:#7D8F9F;" d="M296.16,228.496l-43.64,43.656c2.747,4.674,6.64,8.57,11.312,11.32l43.632-43.64
	C304.72,235.155,300.83,231.253,296.16,228.496z"/>
<path style="fill:#D1E3EE;" d="M52,360c-28.719,0-52,23.281-52,52s23.281,52,52,52h76.52V360H52z"/>
<path style="fill:#FFFFFF;" d="M56,424h48v16H56V424z"/>
<g>
</g>
<g>
</g>
<g>
</g>
<g>
</g>
<g>
</g>
<g>
</g>
<g>
</g>
<g>
</g>
<g>
</g>
<g>
</g>
<g>
</g>
<g>
</g>
<g>
</g>
<g>
</g>
<g>
</g>
</svg>
