<?xml version="1.0" encoding="iso-8859-1"?>
<!-- Generator: Adobe Illustrator 19.0.0, SVG Export Plug-In . SVG Version: 6.00 Build 0)  -->
<svg version="1.1" id="Capa_1" xmlns="http://www.w3.org/2000/svg" xmlns:xlink="http://www.w3.org/1999/xlink" x="0px" y="0px"
	 viewBox="0 0 464 464" style="enable-background:new 0 0 464 464;" xml:space="preserve">
<g>
	<path style="fill:#321A13;" d="M320,55.504h16v48h-16V55.504z"/>
	<path style="fill:#321A13;" d="M128,55.504h16v48h-16V55.504z"/>
</g>
<path style="fill:#9A615B;" d="M0,96h464v336H0L0,96z"/>
<g>
	<path style="fill:#67342C;" d="M80,96h48v335.496H80V96z"/>
	<path style="fill:#67342C;" d="M336,96h48v335.496h-48V96z"/>
</g>
<path style="fill:#CFAD9A;" d="M120,32h224v32H120L120,32z"/>
<circle style="fill:#D1E3EE;" cx="231.976" cy="304" r="96"/>
<path style="fill:#321A13;" d="M0,168h464v16H0L0,168z"/>
<g>
	<path style="fill:#FFD884;" d="M64,136h80v80H64V136z"/>
	<path style="fill:#FFD884;" d="M320,136h80v80h-80V136z"/>
</g>
<path style="fill:#DD1C4B;" d="M304,280h-48v-48h-48v48h-48v48h48v48h48v-48h48V280z"/>
<g>
	<path style="fill:#FFD884;" d="M87.976,216v24c0.001,4.243,1.687,8.312,4.688,11.312c6.248,6.246,16.376,6.246,22.624,0
		c3.001-3,4.687-7.069,4.688-11.312v-24H87.976z"/>
	<path style="fill:#FFD884;" d="M343.976,216v24c0.001,4.243,1.687,8.312,4.688,11.312c6.248,6.246,16.376,6.246,22.624,0
		c3.001-3,4.687-7.069,4.688-11.312v-24H343.976z"/>
</g>
<g>
	<path style="fill:#FFBF41;" d="M64,167.504h80v16H64V167.504z"/>
	<path style="fill:#FFBF41;" d="M320,167.504h80v16h-80V167.504z"/>
</g>
<g>
</g>
<g>
</g>
<g>
</g>
<g>
</g>
<g>
</g>
<g>
</g>
<g>
</g>
<g>
</g>
<g>
</g>
<g>
</g>
<g>
</g>
<g>
</g>
<g>
</g>
<g>
</g>
<g>
</g>
</svg>
