<?xml version="1.0" encoding="iso-8859-1"?>
<!-- Generator: Adobe Illustrator 19.0.0, SVG Export Plug-In . SVG Version: 6.00 Build 0)  -->
<svg version="1.1" id="Capa_1" xmlns="http://www.w3.org/2000/svg" xmlns:xlink="http://www.w3.org/1999/xlink" x="0px" y="0px"
	 viewBox="0 0 464 464" style="enable-background:new 0 0 464 464;" xml:space="preserve">
<path style="fill:#A9BFD1;" d="M336,79.504V64h-72H120H48v400h288v-16.496h48v-368H336z"/>
<path style="fill:#D1E3EE;" d="M120,64H48v400h288V64h-72"/>
<path style="fill:#FFD884;" d="M223.976,32c0-17.673-14.327-32-32-32s-32,14.327-32,32h-40v56h144V32H223.976z"/>
<path style="fill:#F6F6E7;" d="M377.376,134.632L231.976,280v32h32l145.4-145.368c4.24-4.245,6.623-10,6.624-16
	c0.004-12.495-10.121-22.628-22.616-22.632c-0.003,0-0.005,0-0.008,0C387.373,127.997,381.617,130.384,377.376,134.632z"/>
<g>
	<path style="fill:#7D8F9F;" d="M232,352h72v16h-72V352z"/>
	<path style="fill:#7D8F9F;" d="M232,384h72v16h-72V384z"/>
	<path style="fill:#7D8F9F;" d="M80,280h88v16H80V280z"/>
	<path style="fill:#7D8F9F;" d="M232,416h72v16h-72V416z"/>
	<path style="fill:#7D8F9F;" d="M80,184h152v16H80L80,184z"/>
	<path style="fill:#7D8F9F;" d="M80,232h136v16H80V232z"/>
</g>
<path style="fill:#FFBF41;" d="M184,32h16v16h-16V32z"/>
<path style="fill:#DD1C4B;" d="M216,128h-16v-16h-16v16h-16v16h16v16h16v-16h16V128z"/>
<g>
	<path style="fill:#F8C09C;" d="M79.976,360c0.026,14.559,9.897,27.257,24,30.872v-61.736C89.874,332.748,80.002,345.443,79.976,360
		L79.976,360z"/>
	<path style="fill:#F8C09C;" d="M143.976,360c-0.026-14.557-9.898-27.252-24-30.864v61.736
		C134.079,387.257,143.95,374.559,143.976,360L143.976,360z"/>
	<path style="fill:#F8C09C;" d="M119.976,329.136c-5.226-1.515-10.774-1.515-16,0c-17.112,4.418-27.402,21.872-22.984,38.984
		c4.418,17.112,21.872,27.402,38.984,22.984s27.402-21.872,22.984-38.984C140.05,340.848,131.248,332.046,119.976,329.136z"/>
	<path style="fill:#F8C09C;" d="M136,392h64v32h-64V392z"/>
</g>
<path style="fill:#FFD884;" d="M344.006,168.002l24.002-24.002L400.009,176l-24.002,24.002L344.006,168.002z"/>
<path style="fill:#EF937D;" d="M111.976,328c-2.704,0.033-5.393,0.415-8,1.136v61.736c5.227,1.504,10.773,1.504,16,0v-61.736
	C117.369,328.415,114.68,328.033,111.976,328z"/>
<path style="fill:#9A615B;" d="M248.006,263.975l96.003-96.003l32.001,32.001l-96.003,96.003L248.006,263.975z"/>
<g>
</g>
<g>
</g>
<g>
</g>
<g>
</g>
<g>
</g>
<g>
</g>
<g>
</g>
<g>
</g>
<g>
</g>
<g>
</g>
<g>
</g>
<g>
</g>
<g>
</g>
<g>
</g>
<g>
</g>
</svg>
