<?xml version="1.0" encoding="iso-8859-1"?>
<!-- Generator: Adobe Illustrator 19.0.0, SVG Export Plug-In . SVG Version: 6.00 Build 0)  -->
<svg version="1.1" id="Capa_1" xmlns="http://www.w3.org/2000/svg" xmlns:xlink="http://www.w3.org/1999/xlink" x="0px" y="0px"
	 viewBox="0 0 469.6 469.6" style="enable-background:new 0 0 469.6 469.6;" xml:space="preserve">
<path style="fill:#F6F6E7;" d="M133.6,143.052h-48c0.026-22.091-17.862-40.021-39.953-40.047
	C23.555,102.98,5.626,120.868,5.6,142.959c-0.012,10.509,4.112,20.6,11.48,28.093c-15.485,15.756-15.266,41.081,0.49,56.566
	s41.081,15.266,56.566-0.49c9.338-9.501,13.333-23.027,10.656-36.077H133.6V143.052z"/>
<path style="fill:#9A615B;" d="M317.6,7.052V6.548h-20c-94.992,0-172,68.048-172,152s77.008,152,172,152h10.064
	c3.304,0.216,6.584,0.504,9.936,0.504c83.947,0,152-68.053,152-152S401.547,7.052,317.6,7.052z"/>
<circle style="fill:#F8C09C;" cx="317.6" cy="158.548" r="152"/>
<g>
	<ellipse style="fill:#B51C48;" cx="293.6" cy="243.044" rx="40" ry="36"/>
	<ellipse style="fill:#B51C48;" cx="389.6" cy="219.044" rx="32" ry="28"/>
</g>
<g>
	<path style="fill:#EA676B;" d="M77.6,367.052c-26.51,0-48,21.49-48,48s21.49,48,48,48h256v-96H77.6z"/>
	<path style="fill:#EA676B;" d="M11.28,444.708L0,433.388l18.344-18.336L0,396.708l11.28-11.32l24,24
		c3.126,3.122,3.129,8.188,0.006,11.314c-0.002,0.002-0.004,0.004-0.006,0.006L11.28,444.708z"/>
</g>
<g>
	<path style="fill:#F6F6E7;" d="M117.624,423.052h144v16h-144L117.624,423.052z"/>
	<path style="fill:#F6F6E7;" d="M85.624,423.052h16v16h-16V423.052z"/>
</g>
<ellipse style="fill:#B51C48;" cx="317.6" cy="107.044" rx="96" ry="68"/>
<circle style="fill:#F8C09C;" cx="333.6" cy="415.052" r="48"/>
<g>
</g>
<g>
</g>
<g>
</g>
<g>
</g>
<g>
</g>
<g>
</g>
<g>
</g>
<g>
</g>
<g>
</g>
<g>
</g>
<g>
</g>
<g>
</g>
<g>
</g>
<g>
</g>
<g>
</g>
</svg>
