<?xml version="1.0" encoding="iso-8859-1"?>
<!-- Generator: Adobe Illustrator 19.0.0, SVG Export Plug-In . SVG Version: 6.00 Build 0)  -->
<svg version="1.1" id="Capa_1" xmlns="http://www.w3.org/2000/svg" xmlns:xlink="http://www.w3.org/1999/xlink" x="0px" y="0px"
	 viewBox="0 0 475.304 475.304" style="enable-background:new 0 0 475.304 475.304;" xml:space="preserve">
<path style="fill:#D1E3EE;" d="M397.6,469.652h-168c21.165-100.531,24.291-204.023,9.232-305.648l-9.232-62.352h168l-9.24,62.344
	c-15.056,101.625-11.928,205.118,9.24,305.648V469.652z"/>
<path style="fill:#A9BFD1;" d="M283.272,194.812L272,183.484L408,47.98c3.123-3.118,8.181-3.118,11.304,0l56,56L464,115.308
	l-50.4-50.352L283.272,194.812z"/>
<circle style="fill:#C9DA53;" cx="221.6" cy="53.652" r="48"/>
<path style="fill:#FFD884;" d="M386.224,181.196l-145.16,0.384c10.877,85.156,9.044,171.455-5.44,256.072h156
	C377.117,352.907,375.297,266.476,386.224,181.196z"/>
<circle style="fill:#FBC142;" cx="165.6" cy="365.652" r="104"/>
<path style="fill:#9A615B;" d="M37.776,446.724L28.472,400.5C24.446,380.345,14.538,361.836,0,347.308l11.28-11.32
	c16.782,16.755,28.224,38.107,32.88,61.36l9.304,46.232L37.776,446.724z"/>
<path style="fill:#4FB86A;" d="M69.6,205.652c0,53.019,42.981,96,96,96C165.6,248.633,122.619,205.652,69.6,205.652z"/>
<g>
	<path style="fill:#EC7422;" d="M165.6,357.652c-17.673,0-32-14.327-32-32h16c0,8.837,7.163,16,16,16s16-7.163,16-16
		s-7.163-16-16-16v-16c17.673,0,32,14.327,32,32S183.273,357.652,165.6,357.652z"/>
	<path style="fill:#EC7422;" d="M109.624,413.652h16v16h-16V413.652z"/>
	<path style="fill:#EC7422;" d="M141.624,429.652h16v16h-16V429.652z"/>
	<path style="fill:#EC7422;" d="M170.044,430.491l16-8l7.155,14.311l-16,8L170.044,430.491z"/>
	<path style="fill:#EC7422;" d="M205.624,413.652h16v16h-16V413.652z"/>
	<path style="fill:#EC7422;" d="M149.624,397.652h16v16h-16V397.652z"/>
</g>
<circle style="fill:#DD156D;" cx="37.6" cy="437.652" r="32"/>
<g>
</g>
<g>
</g>
<g>
</g>
<g>
</g>
<g>
</g>
<g>
</g>
<g>
</g>
<g>
</g>
<g>
</g>
<g>
</g>
<g>
</g>
<g>
</g>
<g>
</g>
<g>
</g>
<g>
</g>
</svg>
