<?xml version="1.0" encoding="iso-8859-1"?>
<!-- Generator: Adobe Illustrator 19.0.0, SVG Export Plug-In . SVG Version: 6.00 Build 0)  -->
<svg version="1.1" id="Capa_1" xmlns="http://www.w3.org/2000/svg" xmlns:xlink="http://www.w3.org/1999/xlink" x="0px" y="0px"
	 viewBox="0 0 464.188 464.188" style="enable-background:new 0 0 464.188 464.188;" xml:space="preserve">
<path style="fill:#F8C09C;" d="M464.053,120.188c-0.027-15.407-8.924-29.421-22.856-36c19.947-9.382,28.511-33.157,19.129-53.104
	s-33.157-28.511-53.104-19.129c-7.22,3.396-13.256,8.877-17.33,15.737c-6.758-20.898-29.178-32.36-50.076-25.601
	c-10.48,3.389-19.085,10.974-23.764,20.945C306.7,3.154,283.001-5.382,263.118,3.97c-8.381,3.942-15.124,10.685-19.066,19.066
	C234.7,3.154,211.001-5.382,191.118,3.97c-8.381,3.942-15.124,10.685-19.066,19.066C162.7,3.154,139.001-5.382,119.118,3.97
	c-8.381,3.942-15.124,10.685-19.066,19.066C90.745,3.074,67.017-5.562,47.055,3.746s-28.598,33.036-19.29,52.997
	c1.36,2.917,3.068,5.659,5.088,8.165C11.201,68.8-3.196,89.508,0.697,111.159c1.803,10.03,7.382,18.987,15.588,25.029
	C-1.4,149.16-5.222,174.012,7.75,191.697c5.132,6.997,12.415,12.121,20.735,14.587c-2.867,5.536-4.385,11.67-4.432,17.904
	c-0.105,22.091,17.719,40.085,39.81,40.189c22.091,0.105,40.085-17.719,40.189-39.81c0.084-17.699-11.474-33.35-28.415-38.476
	c8.96-17.264,3.939-38.486-11.808-49.904c17.618-12.839,21.493-37.529,8.654-55.147c-0.391-0.537-0.796-1.064-1.214-1.581
	c12.594-2.329,23.305-10.559,28.8-22.128c9.342,19.882,33.033,28.427,52.915,19.085c8.391-3.943,15.142-10.693,19.085-19.085
	c9.342,19.882,33.033,28.427,52.915,19.085c8.391-3.943,15.142-10.693,19.085-19.085c9.342,19.882,33.033,28.427,52.915,19.085
	c8.391-3.943,15.142-10.693,19.085-19.085c9.328,19.869,32.997,28.414,52.867,19.086c7.222-3.39,13.256-8.876,17.317-15.742
	c3.4,10.324,10.862,18.815,20.664,23.512c-19.866,9.325-28.411,32.989-19.085,52.855c2.821,6.009,7.102,11.216,12.453,15.145
	c-17.673,12.958-21.495,37.79-8.537,55.463c2.394,3.265,5.273,6.144,8.537,8.537c-6.236,4.64-10.982,10.998-13.656,18.296
	c-16.203-14.716-41.267-13.511-55.983,2.692c-3.801,4.185-6.662,9.134-8.393,14.516c-11.183-18.892-35.565-25.142-54.457-13.958
	c-10.824,6.408-17.977,17.56-19.287,30.07c-20.032-9.155-43.693-0.337-52.848,19.696c-7.847,17.172-2.578,37.493,12.624,48.688
	c-17.701,12.995-21.516,37.879-8.521,55.58c2.919,3.976,6.551,7.374,10.713,10.02c-6.755,7.121-10.484,16.585-10.4,26.4
	c-1.039,18.755,13.253,34.833,32,36c18.747-1.167,33.039-17.245,32-36c0.084-9.815-3.645-19.279-10.4-26.4
	c18.527-11.787,23.992-36.361,12.205-54.888c-2.647-4.161-6.045-7.793-10.021-10.712c8.875-6.611,14.595-16.621,15.784-27.624
	c19.865,9.138,43.377,0.443,52.515-19.422c0.667-1.45,1.246-2.938,1.733-4.458c11.171,18.895,35.544,25.156,54.439,13.984
	c7.971-4.713,14.047-12.061,17.177-20.776c16.346,14.748,41.554,13.453,56.302-2.894c14.748-16.346,13.453-41.554-2.894-56.302
	c-0.979-0.884-2.002-1.718-3.064-2.5c17.673-12.951,21.501-37.776,8.551-55.449c-2.397-3.27-5.28-6.154-8.551-8.551
	C458.024,144.7,464.035,132.823,464.053,120.188L464.053,120.188z"/>
<g>
</g>
<g>
</g>
<g>
</g>
<g>
</g>
<g>
</g>
<g>
</g>
<g>
</g>
<g>
</g>
<g>
</g>
<g>
</g>
<g>
</g>
<g>
</g>
<g>
</g>
<g>
</g>
<g>
</g>
</svg>
