<?xml version="1.0" encoding="iso-8859-1"?>
<!-- Generator: Adobe Illustrator 19.0.0, SVG Export Plug-In . SVG Version: 6.00 Build 0)  -->
<svg version="1.1" id="Capa_1" xmlns="http://www.w3.org/2000/svg" xmlns:xlink="http://www.w3.org/1999/xlink" x="0px" y="0px"
	 viewBox="0 0 480 480" style="enable-background:new 0 0 480 480;" xml:space="preserve">
<path style="fill:#F8C09C;" d="M240,448c-103.2,0-184-45.68-184-104h16c0,47.696,76.936,88,168,88s168-40.304,168-88h16
	C424,402.32,343.2,448,240,448z"/>
<g>
	<path style="fill:#A9BFD1;" d="M96.328,186.192l-9.384-32.856c-3.581-12.716-16.793-20.121-29.509-16.539
		C47.088,139.711,39.955,149.17,40,159.92V176H24v-16.08c0.015-22.052,17.904-39.915,39.956-39.9
		c17.806,0.013,33.452,11.814,38.356,28.932l9.384,32.848L96.328,186.192z"/>
	<path style="fill:#A9BFD1;" d="M377.32,368H102.728l-27.696-9.24C44.542,348.647,23.971,320.124,24,288h16
		c-0.022,25.231,16.128,47.636,40.072,55.592L105.296,352h269.432l25.224-8.408C423.886,335.627,440.025,313.225,440,288h16
		c0.03,32.117-20.529,60.636-51.008,70.76L377.32,368z"/>
	<path style="fill:#A9BFD1;" d="M383.72,186.192l-15.392-4.392l9.384-32.848c6.119-21.186,28.253-33.4,49.439-27.281
		c17.047,4.923,28.8,20.506,28.849,38.249V176h-16v-16.08c0.008-13.211-10.695-23.926-23.906-23.934
		c-10.685-0.006-20.079,7.075-23.014,17.35L383.72,186.192z"/>
</g>
<g>
	<path style="fill:#EF937D;" d="M344,152h-16c0-13.255-10.745-24-24-24s-24,10.745-24,24h-16c0-22.091,17.909-40,40-40
		S344,129.909,344,152z"/>
	<path style="fill:#EF937D;" d="M216,152h-16c0-13.255-10.745-24-24-24s-24,10.745-24,24h-16c0-22.091,17.909-40,40-40
		S216,129.909,216,152z"/>
</g>
<g>
	<path style="fill:#FFD884;" d="M216,88c-35.33-0.04-63.96-28.67-64-64v-8h16v8c0.031,26.497,21.503,47.969,48,48V88z"/>
	<path style="fill:#FFD884;" d="M272,80c-35.33-0.04-63.96-28.67-64-64V8h16v8c0.031,26.497,21.503,47.969,48,48V80z"/>
	<path style="fill:#FFD884;" d="M328,72c-35.33-0.04-63.96-28.67-64-64V0h16v8c0.031,26.497,21.503,47.969,48,48V72z"/>
</g>
<g>
	<path style="fill:#F8C09C;" d="M56,304c-30.872,0-56-32.304-56-72s25.128-72,56-72c10.124,0.1,19.945,3.467,28,9.6l-9.52,12.856
		C69.19,178.343,62.7,176.076,56,176c-22.056,0-40,25.12-40,56s17.944,56,40,56V304z"/>
	<path style="fill:#F8C09C;" d="M56,264c-13.464,0-24-14.056-24-32s10.536-32,24-32v16c-3.264,0-8,6.232-8,16s4.736,16,8,16V264z"/>
	<path style="fill:#F8C09C;" d="M424,304v-16c22.056,0,40-25.128,40-56s-17.944-56-40-56c-6.699,0.058-13.194,2.306-18.496,6.4
		L396,169.568c8.055-6.133,17.876-9.5,28-9.6c30.872,0,56,32.296,56,72S454.896,304,424,304L424,304z"/>
	<path style="fill:#F8C09C;" d="M424,264v-16c3.264,0,8-6.24,8-16s-4.736-16-8-16v-16c13.464,0,24,14.048,24,32S437.488,264,424,264
		z"/>
</g>
<path style="fill:#D1E3EE;" d="M96.024,176h288v192h-288L96.024,176z"/>
<g>
	<path style="fill:#7FCCCB;" d="M136.024,216h208v16h-208L136.024,216z"/>
	<path style="fill:#7FCCCB;" d="M136.024,264h104v16h-104L136.024,264z"/>
	<path style="fill:#7FCCCB;" d="M136.024,312h208v16h-208L136.024,312z"/>
	<path style="fill:#7FCCCB;" d="M256.024,264h16v16h-16V264z"/>
	<path style="fill:#7FCCCB;" d="M288.024,264h56v16h-56V264z"/>
</g>
<path style="fill:#F8C09C;" d="M288,480h-96c-4.418,0-8-3.582-8-8v-32h16v24h80v-24h16v32C296,476.418,292.418,480,288,480z"/>
<g>
</g>
<g>
</g>
<g>
</g>
<g>
</g>
<g>
</g>
<g>
</g>
<g>
</g>
<g>
</g>
<g>
</g>
<g>
</g>
<g>
</g>
<g>
</g>
<g>
</g>
<g>
</g>
<g>
</g>
</svg>
