<?xml version="1.0" encoding="iso-8859-1"?>
<!-- Generator: Adobe Illustrator 19.0.0, SVG Export Plug-In . SVG Version: 6.00 Build 0)  -->
<svg version="1.1" id="Capa_1" xmlns="http://www.w3.org/2000/svg" xmlns:xlink="http://www.w3.org/1999/xlink" x="0px" y="0px"
	 viewBox="0 0 480.481 480.481" style="enable-background:new 0 0 480.481 480.481;" xml:space="preserve">
<path style="fill:#C9DA53;" d="M232.265,159.985h16v312h-16L232.265,159.985z"/>
<path style="fill:#8FC33E;" d="M231.76,8.485L240.245,0l0,0l8.485,8.485c43.739,43.739,43.739,114.654,0,158.393l-8.485,8.485l0,0
	l-8.485-8.485C188.021,123.139,188.021,52.224,231.76,8.485z"/>
<g>
	<path style="fill:#C9DA53;" d="M240.241,376.481c-15.121,0.056-29.372-7.069-38.4-19.2l12.8-9.6
		c10.604,14.138,30.662,17.004,44.8,6.4c2.426-1.819,4.581-3.974,6.4-6.4l12.8,9.6C269.612,369.411,255.362,376.536,240.241,376.481
		z"/>
	<path style="fill:#C9DA53;" d="M240.241,480.481c-15.121,0.055-29.371-7.07-38.4-19.2l12.8-9.6
		c10.604,14.138,30.662,17.004,44.8,6.4c2.426-1.819,4.581-3.974,6.4-6.4l12.8,9.6C269.612,473.411,255.362,480.536,240.241,480.481
		z"/>
	<path style="fill:#C9DA53;" d="M240.241,272.481c-15.121,0.055-29.371-7.07-38.4-19.2l12.8-9.6
		c10.604,14.139,30.662,17.004,44.8,6.4c2.426-1.819,4.581-3.974,6.4-6.4l12.8,9.6C269.612,265.411,255.362,272.536,240.241,272.481
		z"/>
</g>
<g>
	<path style="fill:#8FC33E;" d="M344.241,159.977h16l0,0v16c0,44.183-35.817,80-80,80h-16l0,0v-16
		C264.241,195.794,300.058,159.977,344.241,159.977z"/>
	<path style="fill:#8FC33E;" d="M344.241,264.481h16l0,0v16c0,44.183-35.817,80-80,80h-16l0,0v-16
		C264.241,300.298,300.058,264.481,344.241,264.481z"/>
	<path style="fill:#8FC33E;" d="M344.241,368.481h16l0,0v16c0,44.183-35.817,80-80,80h-16l0,0v-16
		C264.241,404.298,300.058,368.481,344.241,368.481z"/>
	<path style="fill:#8FC33E;" d="M216.321,255.985h-16c-44.183,0-80-35.817-80-80v-16l0,0h16c44.183,0,80,35.817,80,80V255.985
		L216.321,255.985z"/>
	<path style="fill:#8FC33E;" d="M216.241,360.481h-16c-44.183,0-80-35.817-80-80v-16l0,0h16c44.183,0,80,35.817,80,80V360.481
		L216.241,360.481z"/>
	<path style="fill:#8FC33E;" d="M216.241,464.481h-16c-44.183,0-80-35.817-80-80v-16l0,0h16c44.183,0,80,35.817,80,80V464.481
		L216.241,464.481z"/>
</g>
<g>
</g>
<g>
</g>
<g>
</g>
<g>
</g>
<g>
</g>
<g>
</g>
<g>
</g>
<g>
</g>
<g>
</g>
<g>
</g>
<g>
</g>
<g>
</g>
<g>
</g>
<g>
</g>
<g>
</g>
</svg>
