<?xml version="1.0" encoding="iso-8859-1"?>
<!-- Generator: Adobe Illustrator 19.0.0, SVG Export Plug-In . SVG Version: 6.00 Build 0)  -->
<svg version="1.1" id="Capa_1" xmlns="http://www.w3.org/2000/svg" xmlns:xlink="http://www.w3.org/1999/xlink" x="0px" y="0px"
	 viewBox="0 0 464.04 464.04" style="enable-background:new 0 0 464.04 464.04;" xml:space="preserve">
<path style="fill:#D1E3EE;" d="M0.04,120.02h464v224h-464L0.04,120.02z"/>
<g>
	<path style="fill:#B81A48;" d="M224.016,295.476c-3.435-0.004-6.484-2.2-7.576-5.456l-25.92-77.312l-15.352,30.4
		c-1.358,2.687-4.109,4.384-7.12,4.392l-168,0.544l-0.048-16l163.096-0.528l21.784-43.088c1.992-3.944,6.804-5.525,10.748-3.533
		c1.882,0.951,3.312,2.606,3.98,4.605l23.608,70.216l25.128-93.8c0.893-3.554,4.128-6.016,7.792-5.928
		c3.646,0.029,6.81,2.52,7.696,6.056l18.24,72.96l14.648-34.168c1.227-2.865,4.005-4.757,7.12-4.848
		c3.089-0.008,5.93,1.691,7.384,4.416l13.792,27.584h27v16h-32c-3.047,0.017-5.838-1.699-7.2-4.424l-8.28-16.576l-17.208,40.144
		c-1.742,4.061-6.445,5.94-10.506,4.199c-2.295-0.984-3.999-2.984-4.606-5.407l-16.44-65.992l-24,89.6
		c-0.913,3.41-3.952,5.819-7.48,5.928L224.016,295.476z"/>
	<path style="fill:#B81A48;" d="M368.04,232.02h16v16h-16V232.02z"/>
	<path style="fill:#B81A48;" d="M400.04,232.02h64v16h-64V232.02z"/>
</g>
<g>
	<path style="fill:#A9BFD1;" d="M40.04,320.02h16v24h-16V320.02z"/>
	<path style="fill:#A9BFD1;" d="M88.04,320.02h16v24h-16V320.02z"/>
	<path style="fill:#A9BFD1;" d="M136.04,320.02h16v24h-16V320.02z"/>
	<path style="fill:#A9BFD1;" d="M184.04,320.02h16v24h-16V320.02z"/>
	<path style="fill:#A9BFD1;" d="M232.04,320.02h16v24h-16V320.02z"/>
	<path style="fill:#A9BFD1;" d="M280.04,320.02h16v24h-16V320.02z"/>
	<path style="fill:#A9BFD1;" d="M328.04,320.02h16v24h-16V320.02z"/>
	<path style="fill:#A9BFD1;" d="M376.04,320.02h16v24h-16V320.02z"/>
	<path style="fill:#A9BFD1;" d="M424.04,320.02h16v24h-16V320.02z"/>
</g>
<g>
</g>
<g>
</g>
<g>
</g>
<g>
</g>
<g>
</g>
<g>
</g>
<g>
</g>
<g>
</g>
<g>
</g>
<g>
</g>
<g>
</g>
<g>
</g>
<g>
</g>
<g>
</g>
<g>
</g>
</svg>
