<?xml version="1.0" encoding="iso-8859-1"?>
<!-- Generator: Adobe Illustrator 19.0.0, SVG Export Plug-In . SVG Version: 6.00 Build 0)  -->
<svg version="1.1" id="Capa_1" xmlns="http://www.w3.org/2000/svg" xmlns:xlink="http://www.w3.org/1999/xlink" x="0px" y="0px"
	 viewBox="0 0 480.048 480.048" style="enable-background:new 0 0 480.048 480.048;" xml:space="preserve">
<path style="fill:#F8C09C;" d="M398.648,49.4c-12.485-12.508-32.747-12.527-45.255-0.041c-6.018,6.007-9.398,14.162-9.393,22.665
	v-32c0-17.673-14.327-32-32-32s-32,14.327-32,32c0-17.673-14.327-32-32-32s-32,14.327-32,32c0-17.673-14.327-32-32-32
	s-32,14.327-32,32v224l-32-32v-72c0-13.255-10.745-24-24-24s-24,10.745-24,24v120l80,88v1.68c0.013,23.126,17.089,42.695,40,45.84
	v56.48h176v-56.48c22.911-3.145,39.987-22.714,40-45.84V72.024C408.005,63.541,404.641,55.404,398.648,49.4z"/>
<path style="fill:#DD1C4B;" d="M228.64,363.28L118.672,252.736c-25.096-25.293-29.878-64.369-11.624-94.968
	c6.529-10.932,15.648-20.089,26.552-26.664c30.42-18.353,69.446-13.522,94.472,11.696L240,154.848l12-12.048
	c25.027-25.222,64.058-30.054,94.48-11.696c10.893,6.579,20,15.736,26.52,26.664c18.254,30.599,13.472,69.675-11.624,94.968
	L251.408,363.28c-6.209,6.287-16.34,6.35-22.627,0.141C228.734,363.374,228.687,363.327,228.64,363.28L228.64,363.28z"/>
<path style="fill:#B81A48;" d="M232,303.488c-3.437-0.005-6.487-2.204-7.576-5.464l-25.92-77.304l-15.352,30.4
	c-1.358,2.687-4.109,4.384-7.12,4.392L0.048,256.024l-0.048-16l171.096-0.52l21.784-43.088c1.483-2.857,4.506-4.577,7.72-4.392
	c3.22,0.233,5.983,2.379,7.008,5.44L231.2,267.76l25.128-93.808c1.143-4.268,5.529-6.801,9.797-5.659
	c2.879,0.771,5.09,3.078,5.739,5.987l12.216,54.704l13.6-17.808c2.681-3.512,7.701-4.186,11.213-1.505
	c0.953,0.728,1.731,1.66,2.275,2.729l13.784,27.104l155.096,0.52l-0.048,16l-160-0.536c-3.001-0.011-5.744-1.7-7.104-4.376
	L302.664,231L286.4,252.336c-2.679,3.513-7.699,4.189-11.213,1.51c-1.498-1.142-2.544-2.776-2.955-4.614l-8.888-39.696l-23.576,88
	c-0.913,3.41-3.952,5.819-7.48,5.928L232,303.488z"/>
<g>
</g>
<g>
</g>
<g>
</g>
<g>
</g>
<g>
</g>
<g>
</g>
<g>
</g>
<g>
</g>
<g>
</g>
<g>
</g>
<g>
</g>
<g>
</g>
<g>
</g>
<g>
</g>
<g>
</g>
</svg>
