<?xml version="1.0" encoding="iso-8859-1"?>
<!-- Generator: Adobe Illustrator 19.0.0, SVG Export Plug-In . SVG Version: 6.00 Build 0)  -->
<svg version="1.1" id="Capa_1" xmlns="http://www.w3.org/2000/svg" xmlns:xlink="http://www.w3.org/1999/xlink" x="0px" y="0px"
	 viewBox="0 0 464 464" style="enable-background:new 0 0 464 464;" xml:space="preserve">
<g>
	<path style="fill:#A9BFD1;" d="M160.024,208h144v48h-144L160.024,208z"/>
	<circle style="fill:#A9BFD1;" cx="32" cy="232.496" r="32"/>
	<circle style="fill:#A9BFD1;" cx="432" cy="232.496" r="32"/>
</g>
<g>
	<path style="fill:#394D5D;" d="M96.024,128h-64v208h64h64V128H96.024z"/>
	<path style="fill:#394D5D;" d="M368.024,128h-64v208h64h64V128H368.024z"/>
</g>
<g>
	<path style="fill:#D1E3EE;" d="M192.024,208h16v48h-16V208z"/>
	<path style="fill:#D1E3EE;" d="M224.024,208h16v48h-16L224.024,208z"/>
	<path style="fill:#D1E3EE;" d="M256.024,208h16v48h-16V208z"/>
</g>
<g>
	<path style="fill:#0F2537;" d="M120.024,128.496h16v40h-16V128.496z"/>
	<path style="fill:#0F2537;" d="M56.024,296h16v40h-16V296z"/>
	<path style="fill:#0F2537;" d="M88.024,128h16v208h-16V128z"/>
	<path style="fill:#0F2537;" d="M360.024,128h16v208h-16V128z"/>
	<path style="fill:#0F2537;" d="M392.024,128h16v40h-16V128z"/>
	<path style="fill:#0F2537;" d="M328.024,296h16v40h-16V296z"/>
</g>
<g>
</g>
<g>
</g>
<g>
</g>
<g>
</g>
<g>
</g>
<g>
</g>
<g>
</g>
<g>
</g>
<g>
</g>
<g>
</g>
<g>
</g>
<g>
</g>
<g>
</g>
<g>
</g>
<g>
</g>
</svg>
