<?xml version="1.0" encoding="iso-8859-1"?>
<!-- Generator: Adobe Illustrator 19.0.0, SVG Export Plug-In . SVG Version: 6.00 Build 0)  -->
<svg version="1.1" id="Capa_1" xmlns="http://www.w3.org/2000/svg" xmlns:xlink="http://www.w3.org/1999/xlink" x="0px" y="0px"
	 viewBox="0 0 480 480" style="enable-background:new 0 0 480 480;" xml:space="preserve">
<g>
	<path style="fill:#7D8F9F;" d="M176,0h16v480h-16V0z"/>
	<path style="fill:#7D8F9F;" d="M288,0h16v480h-16V0z"/>
</g>
<g>
	<path style="fill:#D1E3EE;" d="M440,80h24v16h-24V80z"/>
	<path style="fill:#D1E3EE;" d="M16,80h24v16H16V80z"/>
</g>
<g>
	<path style="fill:#5A6570;" d="M120.056,152.496L120.056,152.496c-8.837,0-16-7.163-16-16v-96c0-8.837,7.163-16,16-16l0,0
		c8.837,0,16,7.163,16,16v96C136.056,145.333,128.893,152.496,120.056,152.496z"/>
	<path style="fill:#5A6570;" d="M88.056,136.496L88.056,136.496c-8.837,0-16-7.163-16-16v-64c0-8.837,7.163-16,16-16l0,0
		c8.837,0,16,7.163,16,16v64C104.056,129.333,96.893,136.496,88.056,136.496z"/>
	<path style="fill:#5A6570;" d="M120.056,320L120.056,320c-8.837,0-16-7.163-16-16v-96c0-8.837,7.163-16,16-16l0,0
		c8.837,0,16,7.163,16,16v96C136.056,312.837,128.893,320,120.056,320z"/>
	<path style="fill:#5A6570;" d="M88.056,303.992L88.056,303.992c-8.837,0-16-7.163-16-16v-64c0-8.837,7.163-16,16-16l0,0
		c8.837,0,16,7.163,16,16v64C104.056,296.829,96.893,303.992,88.056,303.992z"/>
	<path style="fill:#5A6570;" d="M56.056,120.496L56.056,120.496c-8.837,0-16-7.163-16-16v-32c0-8.837,7.163-16,16-16l0,0
		c8.837,0,16,7.163,16,16v32C72.056,113.333,64.893,120.496,56.056,120.496z"/>
	<path style="fill:#5A6570;" d="M359.976,24.496L359.976,24.496c8.837,0,16,7.163,16,16v96c0,8.837-7.163,16-16,16l0,0
		c-8.837,0-16-7.163-16-16v-96C343.976,31.659,351.139,24.496,359.976,24.496z"/>
	<path style="fill:#5A6570;" d="M391.976,40.496L391.976,40.496c8.837,0,16,7.163,16,16v64c0,8.837-7.163,16-16,16l0,0
		c-8.837,0-16-7.163-16-16v-64C375.976,47.659,383.139,40.496,391.976,40.496z"/>
	<path style="fill:#5A6570;" d="M359.976,192L359.976,192c8.837,0,16,7.163,16,16v96c0,8.837-7.163,16-16,16l0,0
		c-8.837,0-16-7.163-16-16v-96C343.976,199.163,351.139,192,359.976,192z"/>
	<path style="fill:#5A6570;" d="M391.976,208L391.976,208c8.837,0,16,7.163,16,16v64c0,8.837-7.163,16-16,16l0,0
		c-8.837,0-16-7.163-16-16v-64C375.976,215.163,383.139,208,391.976,208z"/>
	<path style="fill:#5A6570;" d="M423.976,56.496L423.976,56.496c8.837,0,16,7.163,16,16v32c0,8.837-7.163,16-16,16l0,0
		c-8.837,0-16-7.163-16-16v-32C407.976,63.659,415.139,56.496,423.976,56.496z"/>
</g>
<g>
	<path style="fill:#D1E3EE;" d="M344.032,103.992h-208v-32h208L344.032,103.992z"/>
	<path style="fill:#D1E3EE;" d="M344.032,271.992h-208v-32h208L344.032,271.992z"/>
	<path style="fill:#D1E3EE;" d="M400.032,424.496h-320v-32h320L400.032,424.496z"/>
	<path style="fill:#D1E3EE;" d="M408,240.496h32v32h-32V240.496z"/>
	<path style="fill:#D1E3EE;" d="M40,240h32v32H40L40,240z"/>
</g>
<g>
	<path style="fill:#5A6570;" d="M128.056,455.952L128.056,455.952c-8.837,0-16-7.163-16-16v-64c0-8.837,7.163-16,16-16l0,0
		c8.837,0,16,7.163,16,16v64C144.056,448.789,136.893,455.952,128.056,455.952z"/>
	<path style="fill:#5A6570;" d="M351.976,360L351.976,360c8.837,0,16,7.163,16,16v64c0,8.837-7.163,16-16,16l0,0
		c-8.837,0-16-7.163-16-16v-64C335.976,367.163,343.139,360,351.976,360z"/>
</g>
<g>
</g>
<g>
</g>
<g>
</g>
<g>
</g>
<g>
</g>
<g>
</g>
<g>
</g>
<g>
</g>
<g>
</g>
<g>
</g>
<g>
</g>
<g>
</g>
<g>
</g>
<g>
</g>
<g>
</g>
</svg>
