<?xml version="1.0" encoding="iso-8859-1"?>
<!-- Generator: Adobe Illustrator 19.0.0, SVG Export Plug-In . SVG Version: 6.00 Build 0)  -->
<svg version="1.1" id="Capa_1" xmlns="http://www.w3.org/2000/svg" xmlns:xlink="http://www.w3.org/1999/xlink" x="0px" y="0px"
	 viewBox="0 0 464 464" style="enable-background:new 0 0 464 464;" xml:space="preserve">
<g>
	<path style="fill:#FFBF41;" d="M228,0c128.13,0.012,231.991,103.891,231.979,232.021C459.967,360.135,356.114,463.988,228,464V0z"
		/>
	<path style="fill:#FFBF41;" d="M167.504,388.28c-37.396,36.957-97.564,36.957-134.96,0C14.286,370.249,4.007,345.66,4,320V152
		c0.008-24.133,9.106-47.377,25.48-65.104c35.96-38.96,96.695-41.392,135.656-5.432c1.882,1.738,3.695,3.55,5.432,5.432
		C186.925,104.631,196.005,127.874,196,152v168C196.006,345.653,185.744,370.242,167.504,388.28z"/>
</g>
<path style="fill:#EF937D;" d="M100,0L100,0c17.673,0,32,14.327,32,32v400c0,17.673-14.327,32-32,32l0,0c-17.673,0-32-14.327-32-32
	V32C68,14.327,82.327,0,100,0z"/>
<path style="fill:#DD1C4B;" d="M73.68,429.656l-11.28-11.32L120.744,360L62.4,301.656c-3.126-3.122-3.129-8.188-0.006-11.314
	c0.002-0.002,0.004-0.004,0.006-0.006L120.744,232L62.4,173.656c-3.126-3.122-3.129-8.188-0.007-11.314
	c0.126-0.126,0.257-0.249,0.391-0.366l57.6-50.4L62.4,53.656l11.28-11.32l64,64c3.126,3.122,3.129,8.188,0.007,11.314
	c-0.126,0.126-0.257,0.249-0.391,0.366l-57.6,50.4l57.984,57.92c3.126,3.122,3.129,8.188,0.006,11.314
	c-0.002,0.002-0.004,0.004-0.006,0.006L79.336,296l58.344,58.336c3.126,3.122,3.129,8.188,0.006,11.314
	c-0.002,0.002-0.004,0.004-0.006,0.006L73.68,429.656z"/>
<g>
	<path style="fill:#FFD884;" d="M126.4,429.656l-64-64c-3.126-3.122-3.129-8.188-0.006-11.314c0.002-0.002,0.004-0.004,0.006-0.006
		L120.744,296L62.4,237.656c-3.126-3.122-3.129-8.188-0.006-11.314c0.002-0.002,0.004-0.004,0.006-0.006l57.952-57.952l-57.6-50.4
		c-3.325-2.91-3.66-7.964-0.75-11.289c0.118-0.134,0.24-0.265,0.366-0.391l64-64l11.312,11.352l-57.952,57.952l57.6,50.4
		c3.325,2.91,3.66,7.964,0.75,11.289c-0.118,0.134-0.24,0.265-0.366,0.391l-58.344,58.344l58.312,58.304
		c3.126,3.122,3.129,8.188,0.006,11.314c-0.002,0.002-0.004,0.004-0.006,0.006L79.336,360l58.344,58.336L126.4,429.656z"/>
	<path style="fill:#FFD884;" d="M228,48c101.62,0,184,82.38,184,184s-82.38,184-184,184V48z"/>
</g>
<path style="fill:#E3472C;" d="M460,232.496c0-2.84-0.112-5.648-0.216-8.464l-212.448,0.464L397.368,74
	c-3.648-3.899-7.424-7.667-11.328-11.304L228,221.168v22.624L386.52,401.84c3.899-3.648,7.667-7.424,11.304-11.328L247.336,240.456
	l212.496-0.424C459.912,237.52,460,235.024,460,232.496L460,232.496z"/>
<g>
	<circle style="fill:#DD1C4B;" cx="260.08" cy="367.96" r="8"/>
	<circle style="fill:#DD1C4B;" cx="348" cy="272" r="16"/>
	<circle style="fill:#DD1C4B;" cx="268" cy="104" r="16"/>
	<path style="fill:#DD1C4B;" d="M340,192.536c-4.418-0.022-7.982-3.622-7.96-8.04c0.022-4.418,3.622-7.982,8.04-7.96
		c4.403,0.022,7.96,3.597,7.96,8C348.001,188.953,344.418,192.519,340,192.536z"/>
</g>
<g>
	<path style="fill:#F6F6E7;" d="M252.024,312h16v16h-16V312z"/>
	<path style="fill:#F6F6E7;" d="M300.024,256h16v16h-16V256z"/>
	<path style="fill:#F6F6E7;" d="M300.024,192h16v16h-16V192z"/>
	<path style="fill:#F6F6E7;" d="M300.024,96h16v16h-16V96z"/>
	<path style="fill:#F6F6E7;" d="M364.024,184h16v16h-16V184z"/>
	<path style="fill:#F6F6E7;" d="M348.024,144h16v16h-16V144z"/>
	<path style="fill:#F6F6E7;" d="M252.024,136h16v16h-16V136z"/>
	<path style="fill:#F6F6E7;" d="M284.024,336h16v16h-16V336z"/>
	<path style="fill:#F6F6E7;" d="M348.024,304h16v16h-16V304z"/>
</g>
<g>
</g>
<g>
</g>
<g>
</g>
<g>
</g>
<g>
</g>
<g>
</g>
<g>
</g>
<g>
</g>
<g>
</g>
<g>
</g>
<g>
</g>
<g>
</g>
<g>
</g>
<g>
</g>
<g>
</g>
</svg>
