<?xml version="1.0" encoding="iso-8859-1"?>
<!-- Generator: Adobe Illustrator 19.0.0, SVG Export Plug-In . SVG Version: 6.00 Build 0)  -->
<svg version="1.1" id="Capa_1" xmlns="http://www.w3.org/2000/svg" xmlns:xlink="http://www.w3.org/1999/xlink" x="0px" y="0px"
	 viewBox="0 0 464.024 464.024" style="enable-background:new 0 0 464.024 464.024;" xml:space="preserve">
<path style="fill:#1D5C88;" d="M464,288.012H112c-0.047,48.818,20.245,95.45,56,128.688v47.312h256v-64.304
	C449.914,368.259,464.059,328.762,464,288.012L464,288.012z"/>
<path style="fill:#2BB3CE;" d="M336,400.012c-30.928,0-56-25.072-56-56v-8h56V400.012z"/>
<path style="fill:#9A615B;" d="M224,288.012v48h233.312c4.444-15.613,6.703-31.767,6.712-48H224z"/>
<path style="fill:#1D5C88;" d="M368.024,288.012h32v72h-32V288.012z"/>
<path style="fill:#1473A8;" d="M328.024,336.012h16v128h-16V336.012z"/>
<path style="fill:#F8C09C;" d="M464,0.012H184c-101.62,0-184,82.38-184,184v8c-0.04,92.744,75.112,167.96,167.856,168
	c54.983,0.024,106.495-26.871,137.904-72H464V0.012z"/>
<path style="fill:#7D8F9F;" d="M232,200.012c35.857,35.857,84.49,56.001,135.2,56l96.8-0.576V0.012H184
	c-86.205,0.004-160.852,59.856-179.592,144H96.8C147.51,144.011,196.143,164.155,232,200.012L232,200.012z"/>
<path style="fill:#EF937D;" d="M44,240.012v-16c6.627,0,12-5.373,12-12s-5.373-12-12-12v-16c15.464,0,28,12.536,28,28
	S59.464,240.012,44,240.012z"/>
<path style="fill:#FFD884;" d="M0.024,88.012h464v56h-464L0.024,88.012z"/>
<g>
	<path style="fill:#EA676B;" d="M72.024,120.012h16v24h-16V120.012z"/>
	<path style="fill:#EA676B;" d="M104.024,120.012h16v24h-16V120.012z"/>
	<path style="fill:#EA676B;" d="M136.024,120.012h16v24h-16V120.012z"/>
	<path style="fill:#EA676B;" d="M168.024,112.012h16v32h-16V112.012z"/>
	<path style="fill:#EA676B;" d="M40.024,112.012h16v32h-16V112.012z"/>
	<path style="fill:#EA676B;" d="M200.024,120.012h16v24h-16V120.012z"/>
	<path style="fill:#EA676B;" d="M232.024,120.012h16v24h-16V120.012z"/>
	<path style="fill:#EA676B;" d="M264.024,120.012h16v24h-16V120.012z"/>
	<path style="fill:#EA676B;" d="M296.024,112.012h16v32h-16V112.012z"/>
	<path style="fill:#EA676B;" d="M328.024,120.012h16v24h-16V120.012z"/>
	<path style="fill:#EA676B;" d="M360.024,120.012h16v24h-16V120.012z"/>
	<path style="fill:#EA676B;" d="M392.024,120.012h16v24h-16V120.012z"/>
	<path style="fill:#EA676B;" d="M424.024,112.012h16v32h-16V112.012z"/>
</g>
<g>
</g>
<g>
</g>
<g>
</g>
<g>
</g>
<g>
</g>
<g>
</g>
<g>
</g>
<g>
</g>
<g>
</g>
<g>
</g>
<g>
</g>
<g>
</g>
<g>
</g>
<g>
</g>
<g>
</g>
</svg>
