<?xml version="1.0" encoding="iso-8859-1"?>
<!-- Generator: Adobe Illustrator 19.0.0, SVG Export Plug-In . SVG Version: 6.00 Build 0)  -->
<svg version="1.1" id="Capa_1" xmlns="http://www.w3.org/2000/svg" xmlns:xlink="http://www.w3.org/1999/xlink" x="0px" y="0px"
	 viewBox="0 0 464 464" style="enable-background:new 0 0 464 464;" xml:space="preserve">
<g>
	<path style="fill:#7D8F9F;" d="M90.367,290.346L290.366,90.347l11.314,11.314L101.681,301.659L90.367,290.346z"/>
	<path style="fill:#7D8F9F;" d="M114.373,314.346l199.999-199.999l11.314,11.314L125.686,325.659L114.373,314.346z"/>
	<path style="fill:#7D8F9F;" d="M162.399,362.346l199.999-199.999l11.314,11.314L173.713,373.66L162.399,362.346z"/>
	<path style="fill:#7D8F9F;" d="M290.37,186.345l47.999-47.999l11.314,11.314l-47.999,47.999L290.37,186.345z"/>
	<path style="fill:#7D8F9F;" d="M138.374,338.336l104.002-104.002l11.314,11.314L149.688,349.65L138.374,338.336z"/>
</g>
<path style="fill:#FFBF41;" d="M368,0l-88,88l96,96l88-88L368,0z M336,80l32-32l48,48l-32,32L336,80z"/>
<g>
	<path style="fill:#EC7422;" d="M362.374,42.336l24.002-24.002l11.314,11.314L373.688,53.65L362.374,42.336z"/>
	<path style="fill:#EC7422;" d="M386.371,66.336l24.002-24.002l11.314,11.314L397.685,77.65L386.371,66.336z"/>
	<path style="fill:#EC7422;" d="M410.393,90.336l24.002-24.002l11.314,11.314l-24.002,24.002L410.393,90.336z"/>
</g>
<path style="fill:#FFBF41;" d="M88,280L0,368l96,96l88-88L88,280z M48,368l32-32l48,48l-32,32L48,368z"/>
<g>
	<path style="fill:#EC7422;" d="M18.374,386.355l24.002-24.002l11.314,11.314l-24.002,24.002L18.374,386.355z"/>
	<path style="fill:#EC7422;" d="M42.371,410.355l24.002-24.002l11.314,11.314l-24.002,24.002L42.371,410.355z"/>
	<path style="fill:#EC7422;" d="M66.377,434.355l24.002-24.002l11.314,11.314L77.69,445.669L66.377,434.355z"/>
</g>
<path style="fill:#7D8F9F;" d="M258.373,218.344l15.998-15.998l11.314,11.314l-15.998,15.998L258.373,218.344z"/>
<g>
</g>
<g>
</g>
<g>
</g>
<g>
</g>
<g>
</g>
<g>
</g>
<g>
</g>
<g>
</g>
<g>
</g>
<g>
</g>
<g>
</g>
<g>
</g>
<g>
</g>
<g>
</g>
<g>
</g>
</svg>
