<?xml version="1.0" encoding="iso-8859-1"?>
<!-- Generator: Adobe Illustrator 19.0.0, SVG Export Plug-In . SVG Version: 6.00 Build 0)  -->
<svg version="1.1" id="Capa_1" xmlns="http://www.w3.org/2000/svg" xmlns:xlink="http://www.w3.org/1999/xlink" x="0px" y="0px"
	 viewBox="0 0 464.164 464.164" style="enable-background:new 0 0 464.164 464.164;" xml:space="preserve">
<path style="fill:#D1E3EE;" d="M392.188,95.087h32v152h-32V95.087z"/>
<path style="fill:#A9BFD1;" d="M424.188,23.087l-104,64l40,40l24-24h56v-56l8-8L424.188,23.087z"/>
<g>
	<path style="fill:#D1E3EE;" d="M168.188,175.087l-96-160h-40l96,160H168.188z"/>
	<path style="fill:#D1E3EE;" d="M368.188,335.087l64,64l-24,24l-80-80L368.188,335.087z"/>
</g>
<path style="fill:#A9BFD1;" d="M408.164,231.087l-193.048-77.232C145.955,114.592,58.06,138.83,18.797,207.992
	S3.772,365.048,72.934,404.311c44.09,25.029,98.093,25.029,142.182,0l193.048-77.224c26.51,0,48-21.49,48-48
	S434.674,231.087,408.164,231.087z"/>
<circle style="fill:#394D5D;" cx="144.164" cy="279.087" r="56"/>
<path style="fill:#442356;" d="M143.3,55.087H33.076C23.749,55.1,16.177,47.55,16.164,38.223c0-0.008,0-0.016,0-0.024V25.983
	c-0.01-9.327,7.543-16.896,16.87-16.906c0.637-0.001,1.273,0.035,1.906,0.106l110.224,12.232c8.543,0.961,15.001,8.187,15,16.784
	C160.164,47.517,152.618,55.074,143.3,55.087z"/>
<g>
	<circle style="fill:#394D5D;" cx="56.164" cy="423.087" r="24"/>
	<circle style="fill:#394D5D;" cx="432.164" cy="423.087" r="32"/>
</g>
<g>
	<circle style="fill:#D1E3EE;" cx="432.164" cy="423.087" r="8"/>
	<circle style="fill:#D1E3EE;" cx="56.164" cy="423.087" r="8"/>
</g>
<path style="fill:#7D8F9F;" d="M448.188,39.087l-88,88l-40-40l104-64L448.188,39.087z"/>
<circle style="fill:#D1E3EE;" cx="144.164" cy="279.087" r="48"/>
<g>
	<path style="fill:#7D8F9F;" d="M144.164,300.007c-11.558,0.004-20.932-9.362-20.936-20.92c-0.004-11.558,9.362-20.932,20.92-20.936
		c11.558-0.004,20.932,9.362,20.936,20.92c0,0.005,0,0.011,0,0.016C165.071,290.635,155.712,299.994,144.164,300.007z
		 M144.164,274.159c-2.722-0.004-4.932,2.198-4.936,4.92c-0.004,2.722,2.198,4.932,4.92,4.936c2.722,0.004,4.932-2.198,4.936-4.92
		c0-0.003,0-0.005,0-0.008C149.08,276.37,146.881,274.168,144.164,274.159z"/>
	<path style="fill:#7D8F9F;" d="M136.188,295.087h16v72h-16V295.087z"/>
</g>
<path style="fill:#D1E3EE;" d="M112.164,359.087h64c8.837,0,16,7.163,16,16l0,0c0,8.837-7.163,16-16,16h-64c-8.837,0-16-7.163-16-16
	l0,0C96.164,366.25,103.328,359.087,112.164,359.087z"/>
<g>
</g>
<g>
</g>
<g>
</g>
<g>
</g>
<g>
</g>
<g>
</g>
<g>
</g>
<g>
</g>
<g>
</g>
<g>
</g>
<g>
</g>
<g>
</g>
<g>
</g>
<g>
</g>
<g>
</g>
</svg>
