<?xml version="1.0" encoding="iso-8859-1"?>
<!-- Generator: Adobe Illustrator 19.0.0, SVG Export Plug-In . SVG Version: 6.00 Build 0)  -->
<svg version="1.1" id="Capa_1" xmlns="http://www.w3.org/2000/svg" xmlns:xlink="http://www.w3.org/1999/xlink" x="0px" y="0px"
	 viewBox="0 0 463.504 463.504" style="enable-background:new 0 0 463.504 463.504;" xml:space="preserve">
<g>
	<path style="fill:#FFD884;" d="M135.728,0c8.837,0,16,7.163,16,16v31.504l0,0h-32l0,0V16C119.728,7.163,126.891,0,135.728,0z"/>
	<path style="fill:#FFD884;" d="M231.728,0c8.837,0,16,7.163,16,16v31.504l0,0h-32l0,0V16C215.728,7.163,222.891,0,231.728,0z"/>
	<path style="fill:#FFD884;" d="M327.728,0c8.837,0,16,7.163,16,16v31.504l0,0h-32l0,0V16C311.728,7.163,318.891,0,327.728,0z"/>
</g>
<path style="fill:#A9BFD1;" d="M79.752,39.504h304v424h-304L79.752,39.504z"/>
<path style="fill:#7D8F9F;" d="M79.752,463.504l-40-40l40-384V463.504z"/>
<path style="fill:#D1E3EE;" d="M383.752,39.496l40,384.008l-296-0.008l-48-384L383.752,39.496z"/>
<g>
	<path style="fill:#7D8F9F;" d="M151.752,151.504h243.616l-1.672-16H151.752V151.504z"/>
	<path style="fill:#7D8F9F;" d="M135.752,135.504H91.688l2,16h42.064V135.504z"/>
</g>
<g>
	<path style="fill:#FBFCF6;" d="M183.752,383.504h184l-24-200h-184L183.752,383.504z"/>
	<path style="fill:#FBFCF6;" d="M191.752,111.504h-48l-8-40h48L191.752,111.504z"/>
	<path style="fill:#FBFCF6;" d="M271.752,111.504h-48l-8-40h48L271.752,111.504z"/>
	<path style="fill:#FBFCF6;" d="M351.752,111.504h-48l-8-40h48L351.752,111.504z"/>
</g>
<g>
	<path style="fill:#7D8F9F;" d="M247.752,223.504h56v16h-56V223.504z"/>
	<path style="fill:#7D8F9F;" d="M207.752,255.504h64v16h-64L207.752,255.504z"/>
	<path style="fill:#7D8F9F;" d="M310.624,335.504h-86.896v16h88v-8C311.702,340.801,311.331,338.113,310.624,335.504z"/>
</g>
<path style="fill:#F8C09C;" d="M279.728,311.504v-24l32-32l-8-40l-48,48l-32,32l16,16l32,32h40
	C311.728,325.831,297.401,311.504,279.728,311.504z"/>
<path style="fill:#DD1C4B;" d="M310.624,335.504c-3.615-14.103-16.313-23.974-30.872-24v-24l-24-24l-32,32l16,16l24,24l8,8h40
	C311.718,340.8,311.339,338.112,310.624,335.504z"/>
<g>
</g>
<g>
</g>
<g>
</g>
<g>
</g>
<g>
</g>
<g>
</g>
<g>
</g>
<g>
</g>
<g>
</g>
<g>
</g>
<g>
</g>
<g>
</g>
<g>
</g>
<g>
</g>
<g>
</g>
</svg>
