<?xml version="1.0" encoding="iso-8859-1"?>
<!-- Generator: Adobe Illustrator 19.0.0, SVG Export Plug-In . SVG Version: 6.00 Build 0)  -->
<svg version="1.1" id="Capa_1" xmlns="http://www.w3.org/2000/svg" xmlns:xlink="http://www.w3.org/1999/xlink" x="0px" y="0px"
	 viewBox="0 0 480 480" style="enable-background:new 0 0 480 480;" xml:space="preserve">
<path style="fill:#8FC33E;" d="M375.976,383.992c0,13.255,10.745,24,24,24s24-10.745,24-24v-1.096
	c17.048-4.33,27.358-21.66,23.028-38.708c-2.874-11.317-11.711-20.154-23.028-23.028v-1.136c0-13.255-10.745-24-24-24
	s-24,10.745-24,24V383.992z"/>
<g>
	<path style="fill:#EC7422;" d="M32,328.416v47.856L104,384v-64.008L32,328.416z"/>
	<path style="fill:#EC7422;" d="M136,312.472v80.408L296,408V296L136,312.472z"/>
	<path style="fill:#EC7422;" d="M360.44,313.976c-8.809-9.067-20.105-15.322-32.464-17.976v112
		c12.35-2.666,23.636-8.923,32.44-17.984C381.168,368.921,381.179,335.084,360.44,313.976L360.44,313.976z"/>
</g>
<path style="fill:#A9BFD1;" d="M63.976,440h352l0,0c0,17.673-14.327,32-32,32h-288C78.303,472,63.976,457.673,63.976,440L63.976,440
	z"/>
<g>
	<path style="fill:#E3472C;" d="M72,343.992v-20.256l-16,1.872v18.384H72z"/>
	<path style="fill:#E3472C;" d="M168,375.992v19.912l16,1.512v-21.424L168,375.992z"/>
	<path style="fill:#E3472C;" d="M208,359.992v39.688l16,1.512v-41.2L208,359.992z"/>
	<path style="fill:#E3472C;" d="M256,375.992v28.224l16,1.512v-29.736H256z"/>
</g>
<g>
	<path style="fill:#D1E3EE;" d="M252.44,196.976c-5.794-4.914-12.536-8.585-19.808-10.784L239.976,32c0-13.255-10.745-24-24-24
		s-24,10.745-24,24l7.368,154.192c-23.479,7.09-39.497,28.779-39.368,53.304v96.496h16v-80.496h16v80.496h16v-80.496h16v80.496h16
		v-80.496h16v80.496h16v-96.496C271.981,223.151,264.845,207.619,252.44,196.976z"/>
	<path style="fill:#D1E3EE;" d="M0,432h480v16H0L0,432z"/>
</g>
<g>
</g>
<g>
</g>
<g>
</g>
<g>
</g>
<g>
</g>
<g>
</g>
<g>
</g>
<g>
</g>
<g>
</g>
<g>
</g>
<g>
</g>
<g>
</g>
<g>
</g>
<g>
</g>
<g>
</g>
</svg>
