<?xml version="1.0" encoding="iso-8859-1"?>
<!-- Generator: Adobe Illustrator 19.0.0, SVG Export Plug-In . SVG Version: 6.00 Build 0)  -->
<svg version="1.1" id="Capa_1" xmlns="http://www.w3.org/2000/svg" xmlns:xlink="http://www.w3.org/1999/xlink" x="0px" y="0px"
	 viewBox="0 0 464.024 464.024" style="enable-background:new 0 0 464.024 464.024;" xml:space="preserve">
<ellipse style="fill:#FFBF41;" cx="232" cy="360.016" rx="232" ry="104"/>
<g>
	<ellipse style="fill:#FFF89B;" cx="160" cy="360.016" rx="16" ry="48"/>
	<ellipse style="fill:#FFF89B;" cx="88" cy="360.016" rx="16" ry="48"/>
	<ellipse style="fill:#FFF89B;" cx="232" cy="360.016" rx="16" ry="48"/>
	<ellipse style="fill:#FFF89B;" cx="304" cy="360.016" rx="16" ry="48"/>
	<ellipse style="fill:#FFF89B;" cx="376" cy="360.016" rx="16" ry="48"/>
</g>
<circle style="fill:#FFBF41;" cx="112" cy="112.016" r="112"/>
<path style="fill:#FFF89B;" d="M112.024,32.016l16.968,63.024l63.032,16.976l-63.032,16.968l-16.968,63.032l-16.968-63.032
	l-63.032-16.968L95.056,95.04L112.024,32.016z"/>
<g>
	<path style="fill:#FFD884;" d="M407.056,183.04l28,28c6.619,6.627,17.358,6.634,23.985,0.015c0.005-0.005,0.01-0.01,0.015-0.015
		c6.624-6.629,6.624-17.371,0-24l-28-28L407.056,183.04z"/>
	<path style="fill:#FFD884;" d="M304,32.984l-28-28c-6.619-6.627-17.358-6.634-23.985-0.015c-0.005,0.005-0.01,0.01-0.015,0.015
		c-6.624,6.629-6.624,17.371,0,24l28,28L304,32.984z"/>
</g>
<path style="fill:#F8C09C;" d="M264.023,63.981l47.999-47.999l136.003,136.003l-47.999,47.999L264.023,63.981z"/>
<g>
</g>
<g>
</g>
<g>
</g>
<g>
</g>
<g>
</g>
<g>
</g>
<g>
</g>
<g>
</g>
<g>
</g>
<g>
</g>
<g>
</g>
<g>
</g>
<g>
</g>
<g>
</g>
<g>
</g>
</svg>
