<?xml version="1.0" encoding="iso-8859-1"?>
<!-- Generator: Adobe Illustrator 19.0.0, SVG Export Plug-In . SVG Version: 6.00 Build 0)  -->
<svg version="1.1" id="Capa_1" xmlns="http://www.w3.org/2000/svg" xmlns:xlink="http://www.w3.org/1999/xlink" x="0px" y="0px"
	 viewBox="0 0 464 464" style="enable-background:new 0 0 464 464;" xml:space="preserve">
<path style="fill:#8FC33E;" d="M320,88c-33.431,0.65-65.175,14.805-88,39.24c-22.825-24.435-54.569-38.59-88-39.24
	C64.496,88,0,172.168,0,276s64.496,188,144,188c33.425-0.64,65.168-14.78,88-39.2c22.832,24.42,54.575,38.56,88,39.2
	c79.528,0,144-84.168,144-188S399.552,88,320,88z"/>
<path style="fill:#F6F6E7;" d="M296,159.504c-26.216,0-49.408,18.4-64,46.608c-14.592-28.248-37.792-46.608-64-46.608
	c-44.184,0-80,51.928-80,116s35.816,116,80,116c26.208,0,49.408-18.4,64-46.616c14.592,28.248,37.784,46.616,64,46.616
	c44.184,0,80-51.936,80-116S340.208,159.504,296,159.504z"/>
<g>
	<ellipse style="fill:#321A13;" cx="176" cy="279.504" rx="24" ry="48"/>
	<ellipse style="fill:#321A13;" cx="288" cy="279.504" rx="24" ry="48"/>
</g>
<path style="fill:#9A615B;" d="M200.024,0h64l-32,80L200.024,0z"/>
<g>
</g>
<g>
</g>
<g>
</g>
<g>
</g>
<g>
</g>
<g>
</g>
<g>
</g>
<g>
</g>
<g>
</g>
<g>
</g>
<g>
</g>
<g>
</g>
<g>
</g>
<g>
</g>
<g>
</g>
</svg>
